<svg xmlns="http://www.w3.org/2000/svg" width="744.094" height="1052.362" viewBox="0 0 744.09448819 1052.3622047"><path transform="matrix(-.70424 -1.14722 1.15668 -.69847 -57.76 -127.5)" d="M-391.43 129.505l-168.045 108.95-189.956-63.452-68.827-188.077 104.132-171.074 198.677-25.25 143.613 139.59z" fill="#326de6" stroke="#326de6" stroke-width="69" stroke-linejoin="round"/><path transform="matrix(-.05312 -.23128 .23113 -.05248 268.238 562.52)" d="M728 432.362c0 397.645-322.355 720-720 720s-720-322.355-720-720 322.355-720 720-720 720 322.355 720 720z" fill="none" stroke="#fff" stroke-width="162.015" stroke-linejoin="round"/><g stroke="#fff"><g fill="#fff"><g stroke-width="1.768"><path d="M751.737 103.835l68.452.157 4.293 474.38-101.295.884z" transform="matrix(.27454 -.00003 .00003 .29115 145.572 312.246)"/><path d="M866.655 103.835l-68.45.156-4.295 474.382 101.295.883z" transform="matrix(.27454 -.00003 .00003 .29115 145.572 312.246)"/></g><path transform="matrix(.28576 -.00003 .00003 .3175 136.435 322.047)" d="M860.592-99.897c0 28.265-22.913 51.178-51.178 51.178-28.265 0-51.18-22.912-51.18-51.177s22.915-51.18 51.18-51.18 51.178 22.915 51.178 51.18z" stroke-width="1.08"/><path d="M351.076 285.188c0 1.37-.062 3.337-.016 4.657.192 5.513 1.327 9.74 2.006 14.82 1.23 10.87 2.265 19.882 1.63 28.258-.58 4.192-2.858 5.842-4.762 7.783L373 356.963l-3.462-71.653z" stroke-width=".335" transform="matrix(1 0 0 .93884 2.035 22.346)"/><path d="M380.315 285.188c0 1.37.062 3.337.016 4.657-.192 5.513-1.327 9.74-2.006 14.82-1.23 10.87-2.264 19.882-1.628 28.258.578 4.192 2.857 5.842 4.76 7.783l-23.066 16.257 3.463-71.653z" stroke-width=".335" transform="matrix(1 0 0 .93884 2.035 22.346)"/></g><path transform="matrix(.80326 -.59012 .59264 .79984 -120.55 303.588)" d="M266.048 526.72l-41.11-7.78-19.552-36.992 16.732-38.35 40.415-10.83 33.665 24.847 1.564 41.812z" fill="none" stroke-width="38"/><g fill="#fff"><g stroke-width="1.768"><path d="M751.737 103.835l68.452.157 4.293 474.38-101.295.884z" transform="matrix(.17115 -.21466 .22765 .1815 52.576 570.897)"/><path d="M866.655 103.835l-68.45.156-4.295 474.382 101.295.883z" transform="matrix(.17115 -.21466 .22765 .1815 52.576 570.897)"/></g><path transform="matrix(.17814 -.22343 .24825 .19793 54.54 584.152)" d="M860.592-99.897c0 28.265-22.913 51.178-51.178 51.178-28.265 0-51.18-22.912-51.18-51.177s22.915-51.18 51.18-51.18 51.178 22.915 51.178 51.18z" stroke-width="1.08"/><path d="M351.076 285.188c0 1.37-.062 3.337-.016 4.657.192 5.513 1.327 9.74 2.006 14.82 1.23 10.87 2.265 19.882 1.63 28.258-.58 4.192-2.858 5.842-4.762 7.783L373 356.963l-3.462-71.653z" stroke-width=".335" transform="matrix(.62348 -.78184 .73402 .58535 -263.572 502.37)"/><path d="M380.315 285.188c0 1.37.062 3.337.016 4.657-.192 5.513-1.327 9.74-2.006 14.82-1.23 10.87-2.264 19.882-1.628 28.258.578 4.192 2.857 5.842 4.76 7.783l-23.066 16.257 3.463-71.653z" stroke-width=".335" transform="matrix(.62348 -.78184 .73402 .58535 -263.572 502.37)"/></g><g fill="#fff"><g stroke-width="1.768"><path d="M751.737 103.835l68.452.157 4.293 474.38-101.295.884z" transform="matrix(-.06112 -.26765 .28384 -.06482 197.108 804.968)"/><path d="M866.655 103.835l-68.45.156-4.295 474.382 101.295.883z" transform="matrix(-.06112 -.26765 .28384 -.06482 197.108 804.968)"/></g><path transform="matrix(-.06362 -.2786 .30953 -.0707 208.696 811.696)" d="M860.592-99.897c0 28.265-22.913 51.178-51.178 51.178-28.265 0-51.18-22.912-51.18-51.177s22.915-51.18 51.18-51.18 51.178 22.915 51.178 51.18z" stroke-width="1.08"/><path d="M351.076 285.188c0 1.37-.062 3.337-.016 4.657.192 5.513 1.327 9.74 2.006 14.82 1.23 10.87 2.265 19.882 1.63 28.258-.58 4.192-2.858 5.842-4.762 7.783L373 356.963l-3.462-71.653z" stroke-width=".335" transform="matrix(-.22254 -.97492 .9153 -.20892 -53.58 1009.42)"/><path d="M380.315 285.188c0 1.37.062 3.337.016 4.657-.192 5.513-1.327 9.74-2.006 14.82-1.23 10.87-2.264 19.882-1.628 28.258.578 4.192 2.857 5.842 4.76 7.783l-23.066 16.257 3.463-71.653z" stroke-width=".335" transform="matrix(-.22254 -.97492 .9153 -.20892 -53.58 1009.42)"/></g><g fill="#fff"><g stroke-width="1.768"><path d="M751.737 103.835l68.452.157 4.293 474.38-101.295.884z" transform="matrix(-.24737 -.11908 .1263 -.26233 469.968 838.074)"/><path d="M866.655 103.835l-68.45.156-4.295 474.382 101.295.883z" transform="matrix(-.24737 -.11908 .1263 -.26233 469.968 838.074)"/></g><path transform="matrix(-.25747 -.12395 .13772 -.28607 482.453 833.21)" d="M860.592-99.897c0 28.265-22.913 51.178-51.178 51.178-28.265 0-51.18-22.912-51.18-51.177s22.915-51.18 51.18-51.18 51.178 22.915 51.178 51.18z" stroke-width="1.08"/><path d="M351.076 285.188c0 1.37-.062 3.337-.016 4.657.192 5.513 1.327 9.74 2.006 14.82 1.23 10.87 2.265 19.882 1.63 28.258-.58 4.192-2.858 5.842-4.762 7.783L373 356.963l-3.462-71.653z" stroke-width=".335" transform="matrix(-.90098 -.43386 .40733 -.84587 473.515 1161.544)"/><path d="M380.315 285.188c0 1.37.062 3.337.016 4.657-.192 5.513-1.327 9.74-2.006 14.82-1.23 10.87-2.264 19.882-1.628 28.258.578 4.192 2.857 5.842 4.76 7.783l-23.066 16.257 3.463-71.653z" stroke-width=".335" transform="matrix(-.90098 -.43386 .40733 -.84587 473.515 1161.544)"/></g><g fill="#fff"><g stroke-width="1.768"><path d="M751.737 103.835l68.452.157 4.293 474.38-101.295.884z" transform="matrix(-.24733 .11915 -.12636 -.2623 665.89 645.054)"/><path d="M866.655 103.835l-68.45.156-4.295 474.382 101.295.883z" transform="matrix(-.24733 .11915 -.12636 -.2623 665.89 645.054)"/></g><path transform="matrix(-.25744 .12402 -.1378 -.28604 669.87 632.26)" d="M860.592-99.897c0 28.265-22.913 51.178-51.178 51.178-28.265 0-51.18-22.912-51.18-51.177s22.915-51.18 51.18-51.18 51.178 22.915 51.178 51.18z" stroke-width="1.08"/><path d="M351.076 285.188c0 1.37-.062 3.337-.016 4.657.192 5.513 1.327 9.74 2.006 14.82 1.23 10.87 2.265 19.882 1.63 28.258-.58 4.192-2.858 5.842-4.762 7.783L373 356.963l-3.462-71.653z" stroke-width=".335" transform="matrix(-.90096 .4339 -.40737 -.84585 921.003 843.96)"/><path d="M380.315 285.188c0 1.37.062 3.337.016 4.657-.192 5.513-1.327 9.74-2.006 14.82-1.23 10.87-2.264 19.882-1.628 28.258.578 4.192 2.857 5.842 4.76 7.783l-23.066 16.257 3.463-71.653z" stroke-width=".335" transform="matrix(-.90096 .4339 -.40737 -.84585 921.003 843.96)"/></g><g fill="#fff"><g stroke-width="1.768"><path d="M751.737 103.835l68.452.157 4.293 474.38-101.295.884z" transform="matrix(-.06105 .26766 -.28386 -.06475 637.225 371.453)"/><path d="M866.655 103.835l-68.45.156-4.295 474.382 101.295.883z" transform="matrix(-.06105 .26766 -.28386 -.06475 637.225 371.453)"/></g><path transform="matrix(-.06355 .2786 -.30955 -.0706 629.704 360.364)" d="M860.592-99.897c0 28.265-22.913 51.178-51.178 51.178-28.265 0-51.18-22.912-51.18-51.177s22.915-51.18 51.18-51.18 51.178 22.915 51.178 51.18z" stroke-width="1.08"/><path d="M351.076 285.188c0 1.37-.062 3.337-.016 4.657.192 5.513 1.327 9.74 2.006 14.82 1.23 10.87 2.265 19.882 1.63 28.258-.58 4.192-2.858 5.842-4.762 7.783L373 356.963l-3.462-71.653z" stroke-width=".335" transform="matrix(-.22248 .97494 -.9153 -.20888 951.795 296.01)"/><path d="M380.315 285.188c0 1.37.062 3.337.016 4.657-.192 5.513-1.327 9.74-2.006 14.82-1.23 10.87-2.264 19.882-1.628 28.258.578 4.192 2.857 5.842 4.76 7.783l-23.066 16.257 3.463-71.653z" stroke-width=".335" transform="matrix(-.22248 .97494 -.9153 -.20888 951.795 296.01)"/></g><g fill="#fff"><g stroke-width="1.768"><path d="M751.737 103.835l68.452.157 4.293 474.38-101.295.884z" transform="matrix(.1712 .21462 -.2276 .18156 405.748 223.24)"/><path d="M866.655 103.835l-68.45.156-4.295 474.382 101.295.883z" transform="matrix(.1712 .21462 -.2276 .18156 405.748 223.24)"/></g><path transform="matrix(.1782 .2234 -.2482 .198 392.388 222.208)" d="M860.592-99.897c0 28.265-22.913 51.178-51.178 51.178-28.265 0-51.18-22.912-51.18-51.177s22.915-51.18 51.18-51.18 51.178 22.915 51.178 51.18z" stroke-width="1.08"/><path d="M351.076 285.188c0 1.37-.062 3.337-.016 4.657.192 5.513 1.327 9.74 2.006 14.82 1.23 10.87 2.265 19.882 1.63 28.258-.58 4.192-2.858 5.842-4.762 7.783L373 356.963l-3.462-71.653z" stroke-width=".335" transform="matrix(.62352 .7818 -.734 .5854 542.894 -69.737)"/><path d="M380.315 285.188c0 1.37.062 3.337.016 4.657-.192 5.513-1.327 9.74-2.006 14.82-1.23 10.87-2.264 19.882-1.628 28.258.578 4.192 2.857 5.842 4.76 7.783l-23.066 16.257 3.463-71.653z" stroke-width=".335" transform="matrix(.62352 .7818 -.734 .5854 542.894 -69.737)"/></g></g><g fill="#fff"><path d="M344.765 464.364c-.292 6.863-5.94 12.344-12.875 12.344-2.84 0-5.463-.913-7.594-2.47l-3.344 1.595 6.844 14.156 30-14.47-6.813-14.156-6.218 3zM295.8 510.062c5.185 4.507 5.948 12.34 1.624 17.763-1.77 2.22-4.12 3.702-6.665 4.398l-.84 3.607 15.335 3.476 7.393-32.476-15.316-3.5-1.53 6.732zM300.945 576.804c6.756-1.243 13.356 3.044 14.9 9.806.632 2.77.326 5.53-.718 7.952l2.298 2.906 12.28-9.823-20.783-26.028-12.286 9.792 4.31 5.394zM356.335 614.37c3.24-6.056 10.707-8.543 16.956-5.534 2.56 1.232 4.527 3.192 5.772 5.52l3.704.013-.025-15.724-33.305.02-.004 15.71 6.905-.005zM420.183 594.268c-2.715-6.31-.004-13.7 6.244-16.708 2.56-1.233 5.318-1.548 7.913-1.07l2.32-2.888-12.307-9.784-20.75 26.053 12.28 9.8 4.3-5.402zM444.564 531.844c-6.626-1.81-10.712-8.538-9.17-15.3.632-2.768 2.105-5.122 4.097-6.853l-.81-3.613-15.323 3.522 7.43 32.466 15.318-3.492-1.54-6.73zM410.958 473.965c-5.548 4.052-13.355 3.053-17.68-2.37-1.77-2.22-2.692-4.84-2.804-7.475l-3.33-1.62-6.8 14.177 30.017 14.432 6.82-14.153-6.222-2.99z"/></g></svg>