<svg xmlns="http://www.w3.org/2000/svg" width="32.001" height="29.39" viewBox="-224 306.61 32.001 29.39"><path fill="#C32034" d="M-214.707 319.79l-5.138 1.87c.065.823.207 1.636.407 2.434l4.88-1.778c-.157-.823-.215-1.675-.15-2.527M-192 314.108c-.358-.74-.77-1.454-1.25-2.128l-5.14 1.87c.6.612 1.1 1.3 1.51 2.034l4.88-1.776z"/><path fill="#DB212F" d="M-203.304 312.652c1.07.5 1.995 1.18 2.775 1.978l5.138-1.87c-1.422-1.996-3.36-3.665-5.736-4.774-7.344-3.424-16.105-.235-19.53 7.108-1.107 2.376-1.52 4.9-1.326 7.343l5.137-1.87c.085-1.113.358-2.228.855-3.298 2.227-4.77 7.918-6.84 12.688-4.618"/><path fill="#EA2227" d="M-219.12 323.977l-4.88 1.778c.448 1.78 1.224 3.47 2.294 4.975l5.126-1.866c-1.315-1.35-2.19-3.06-2.54-4.887"/><path fill="#DB212F" d="M-197.824 322.04c-.08 1.112-.362 2.23-.86 3.3-2.226 4.77-7.917 6.84-12.69 4.616-1.07-.5-2-1.174-2.78-1.974l-5.126 1.867c1.42 1.995 3.355 3.664 5.73 4.774 7.344 3.423 16.105.235 19.53-7.11 1.107-2.375 1.516-4.9 1.32-7.342l-5.124 1.868z"/><path fill="#EA2227" d="M-196.56 315.768l-4.884 1.776c.906 1.625 1.335 3.495 1.195 5.378l5.127-1.865c-.146-1.84-.635-3.637-1.438-5.29"/><path fill="#AD213A" d="M-219.846 321.66l5.125-1.85-.02 1.015-4.946 1.837-.16-1.002zM-198.39 313.837l5.205-1.76.54.805-5.056 1.76-.69-.805z"/><path fill="#BA2034" d="M-219.282 329.832l5.132-1.837 1.552 1.442-5.38 1.99-1.304-1.595zM-192.612 320.19l-5.212 1.85-.384 2.054 5.557-1.95.038-1.954z"/></svg>