<svg xmlns="http://www.w3.org/2000/svg" width="448" height="448" viewBox="0 0 448 448"><path d="M447 282.5c-5.5-44.5-34-77.5-72.5-77.5-24.006 0-33.5 10-33.5 10s5.796 16.98 7 36c2.5 39.5 2 145 2 145l97-.167V281.5"/><circle cx="373.596" cy="153.289" r="40.514"/><path d="M1 282.5C6.5 238 35 205 73.5 205c24.005 0 33.5 10 33.5 10s-5.796 16.98-7 36c-2.5 39.5-2 145-2 145l-97-.167V281.5"/><circle cx="74.404" cy="153.289" r="40.513"/><g><path d="M322.03 253.43v174.795H126.17V253.43"/><path d="M322.03 256.69c0-61.885-43.847-112.052-97.93-112.052-54.087 0-97.93 50.167-97.93 112.05"/><circle cx="224.765" cy="73.854" r="54.417"/></g></svg>