<svg xmlns="http://www.w3.org/2000/svg" width="448" height="448" viewBox="0 0 448 448"><path d="M445.13 255.84c-1.92-2.75-4.458-4.705-7.623-5.874l-87.958-31.983c-1.834-.666-3.666-1-5.495-1-.09 0-.178.004-.264.006-.086-.003-.175-.007-.26-.007-1.832 0-3.665.333-5.498 1l-87.957 31.983c-3.164 1.17-5.704 3.125-7.62 5.873-1.916 2.747-2.874 5.788-2.874 9.12v95.95c0 2.918.75 5.624 2.25 8.122 1.5 2.5 3.54 4.458 6.12 5.873L335.908 419c2.334 1.332 4.872 2 7.622 2 .087 0 .174-.007.26-.007.087 0 .173.007.265.007 2.744 0 5.286-.668 7.618-2l87.958-34.386c2.58-1.415 4.622-3.374 6.12-5.874 1.502-2.497 2.25-5.203 2.25-8.12V264.96c.002-3.33-.957-6.373-2.87-9.12zM432.01 356.81l-88.15 39.342-88.287-39.342v-15.028l88.287 37.484 88.15-37.484v15.028zm0-47.615l-88.15 39.506-88.286-39.506v-16.735l88.287 36.425 88.15-36.966v17.277zM321.57 187.845c1.502-2.5 2.252-5.205 2.252-8.12V74.06c0-3.33-.96-6.372-2.873-9.12-1.918-2.748-4.46-4.705-7.622-5.873L225.37 27.085c-1.833-.666-3.666-1-5.496-1-.088 0-.175.004-.263.006-.085-.002-.173-.006-.26-.006-1.83 0-3.665.334-5.498 1L125.895 59.07c-3.165 1.167-5.705 3.124-7.62 5.873-1.917 2.748-2.875 5.79-2.875 9.12v105.66c0 2.917.75 5.623 2.25 8.122 1.5 2.5 3.54 4.458 6.122 5.873l87.956 34.388c2.333 1.33 4.87 1.998 7.622 1.998.088 0 .174-.006.26-.006s.174.006.264.006c2.746 0 5.288-.668 7.62-1.998l87.957-34.388c2.58-1.415 4.624-3.374 6.12-5.873zm-13.74-20.958l-88.15 38.37-88.285-38.37v-15.03l88.286 36.515 88.15-36.514v15.03zm0-48.586l-88.15 39.506-88.285-39.505v-16.734l88.286 36.425 88.15-36.966V118.3zM197.926 249.038l-87.957-31.982c-1.834-.666-3.668-1-5.497-1-.088 0-.176.004-.264.007-.087-.003-.175-.007-.262-.007-1.83 0-3.665.334-5.498 1l-87.957 31.982c-3.165 1.168-5.705 3.125-7.62 5.873C.957 257.66 0 260.7 0 264.03v105.663c0 2.916.75 5.62 2.25 8.12 1.5 2.5 3.54 4.456 6.122 5.87l87.956 34.39c2.333 1.332 4.87 2 7.622 2 .088 0 .174-.007.26-.007s.175.006.265.006c2.746 0 5.288-.667 7.62-1.998l87.957-44.098c2.58-1.414 4.623-3.373 6.12-5.873 1.5-2.498 2.25-5.203 2.25-8.12v-95.952c-.002-3.33-.96-6.37-2.875-9.12-1.917-2.747-4.457-4.704-7.62-5.872zm-5.498 106.847l-88.15 39.34-88.286-38.37v-15.028l88.286 36.515 88.15-37.484v15.027zm0-47.615l-88.15 39.507-88.286-39.507v-16.733l88.286 36.424 88.15-36.965v17.275z"/></svg>