<svg xmlns="http://www.w3.org/2000/svg" width="448" height="448" viewBox="0 0 448 448"><g fill="none" stroke="#449FDB"><path opacity=".3" d="M16 0v448"/><path d="M32 0v448"/><path opacity=".3" d="M48 0v448"/><path d="M64 0v448"/><path opacity=".3" d="M80 0v448"/><path d="M96 0v448"/><path opacity=".3" d="M112 0v448"/><path d="M128 0v448"/><path opacity=".3" d="M144 0v448"/><path d="M160 0v448"/><path opacity=".3" d="M176 0v448"/><path d="M192 0v448"/><path opacity=".3" d="M208 0v448"/><path d="M224 0v448"/><path opacity=".3" d="M240 0v448"/><path d="M256 0v448"/><path opacity=".3" d="M272 0v448"/><path d="M288 0v448"/><path opacity=".3" d="M304 0v448"/><path d="M320 0v448"/><path opacity=".3" d="M336 0v448"/><path d="M352 0v448"/><path opacity=".3" d="M368 0v448"/><path d="M384 0v448"/><path opacity=".3" d="M400 0v448"/><path d="M416 0v448"/><path opacity=".3" d="M432 0v448M0 16h448"/><path d="M0 32h448"/><path opacity=".3" d="M0 48h448"/><path d="M0 64h448"/><path opacity=".3" d="M0 80h448"/><path d="M0 96h448"/><path opacity=".3" d="M0 112h448"/><path d="M0 128h448"/><path opacity=".3" d="M0 144h448"/><path d="M0 160h448"/><path opacity=".3" d="M0 176h448"/><path d="M0 192h448"/><path opacity=".3" d="M0 208h448"/><path d="M0 224h448"/><path opacity=".3" d="M0 240h448"/><path d="M0 256h448"/><path opacity=".3" d="M0 272h448"/><path d="M0 288h448"/><path opacity=".3" d="M0 304h448"/><path d="M0 320h448"/><path opacity=".3" d="M0 336h448"/><path d="M0 352h448"/><path opacity=".3" d="M0 368h448"/><path d="M0 384h448"/><path opacity=".3" d="M0 400h448"/><path d="M0 416h448"/><path opacity=".3" d="M0 432h448"/></g><path d="M.69 341.73v-69.103c0-4.21 1.196-8.085 3.59-11.63 2.395-3.544 5.54-6.2 9.44-7.973l72.504-30.9v-66.443c0-4.207 1.195-8.083 3.59-11.627 2.395-3.545 5.54-6.202 9.44-7.975l74.843-31.894c2.56-1.104 5.346-1.66 8.353-1.66 3.006 0 5.79.555 8.353 1.66l74.844 31.894c3.898 1.772 7.042 4.43 9.438 7.975 2.396 3.544 3.593 7.42 3.593 11.628v66.445l72.504 30.9c4.01 1.77 7.183 4.428 9.523 7.973 2.337 3.544 3.507 7.42 3.507 11.63v69.1c0 3.988-1.058 7.7-3.174 11.135-2.118 3.432-5.012 6.033-8.688 7.806l-74.843 37.207c-2.785 1.55-5.96 2.325-9.522 2.325-3.566 0-6.74-.775-9.52-2.325L183.62 360.67c-.56-.225-.95-.444-1.17-.665-.225.22-.614.44-1.17.664l-74.843 37.207c-2.786 1.55-5.96 2.325-9.522 2.325-3.566 0-6.74-.775-9.523-2.325L12.55 360.67c-3.675-1.773-6.573-4.375-8.687-7.807C1.747 349.43.69 345.72.69 341.73zm28.734-72.258l67.492 28.737 67.492-28.738-67.492-28.74-67.492 28.74zm78.184 104.154l64.15-31.896v-52.16l-64.15 27.243v56.813zm1.17-218.443l73.672 31.396 73.674-31.397-73.674-31.396-73.673 31.396zm84.365 94.355l64.15-27.41V177.94l-64.15 27.243v44.353zm7.35 19.934l67.492 28.737 67.49-28.738-67.49-28.74-67.49 28.74zm78.184 104.154l64.15-31.896v-52.16l-64.15 27.243v56.813z"/><path d="M444.16 214.94c-2.27-3.44-5.353-6.02-9.243-7.742L364.523 177.2v-64.51c0-4.086-1.163-7.85-3.485-11.29-2.33-3.44-5.382-6.02-9.168-7.742l-72.663-30.964c-2.486-1.072-5.188-1.613-8.108-1.613s-5.624.543-8.11 1.614l-45.59 19.68c2.506-1.08 5.228-1.623 8.167-1.623 2.94 0 5.663.546 8.167 1.625l77.19 33.048c3.807 1.733 6.885 4.332 9.228 7.797 2.34 3.464 3.512 7.255 3.512 11.37v9.29h.002v43.2h-.002v12.474l70.888 30.21c3.922 1.732 7.024 4.33 9.31 7.796 2.285 3.464 3.43 7.253 3.43 11.37v67.562c0 3.896-1.035 7.528-3.103 10.882-.45.728-.94 1.405-1.456 2.057l33.317-17.72c3.57-1.72 6.38-4.247 8.438-7.58 2.05-3.33 3.08-6.937 3.08-10.808V226.23c0-4.084-1.138-7.847-3.41-11.29z"/></svg>