<svg xmlns="http://www.w3.org/2000/svg" width="448" height="448" viewBox="0 0 448 448"><path d="M384.194 210.28v-.484H235.268v-42.238c33.708-1.346 31.218-5.15 31.218-5.15l14.195-24.466.12.323 14.954-23.597c-9.62-20.216-20.138-33.93-29.604-43.197 16.287 4.682 26.294 12.664 44.943 20.42l11.25-18.254C289 56 269.833 47.833 223.203 47.856c-97.172.05-176.227 79.06-176.227 176.23 0 2.927.033 3.9.065 4.096-.035.522-.09 1.425-.17 2.94l6.85-.347h160.567v42.928c-8.708 1.48-18.78 4.418-23.93 8.805l-15.867 27.167c15.496-7.88 26.798-12.17 39.798-13.925v71.982c-13.067-7.208-32.387-21.168-48.01-46.136l-11.607 19.337c14.58 19.342 29.44 31.71 41.166 39.414-23.87-2.06-37.42-9.217-54.41-20.987l-9.77 16.608c21.843 18.53 46.176 25.198 91.548 24.35 97.154-1.82 176.23-79.054 176.23-176.233 0-5.505.793-8.856.296-14.234l-15.536.43zM235.268 74.985c12.153 7.814 31.298 25.165 44.88 61.52-5.685 3.876-18.04 8.436-44.88 9.792V74.986zm-121.303 134.81H67.248c2.635-28.81 13.16-55.097 29.4-77.03 6.912 4.5 18.674 11.373 34.552 17.854-8.952 17.983-15.47 37.867-17.235 59.175zm-2.95-93.814c22.083-22.404 50.96-38.363 83.304-45.072-15.32 13.64-35.696 34.392-52.162 60.34-13.596-5.38-24.21-11.104-31.143-15.268zm103.274 93.814H136.53c2.002-18.504 7.935-35.882 15.918-51.687 17.567 5.253 38.37 9.22 61.842 9.747v41.94zm0-63.256c-18.676-.655-35.692-3.792-50.52-7.98 16.525-25.28 36.815-45.074 50.52-56.946v64.926zm20.978 84.235h82.2c-1.152 21.03-7.025 40.186-15.316 57.167-20.803-7.33-44.546-13.69-66.884-15.077v-42.09zm0 64.186c18.473.936 38.37 5.79 56.34 11.66-18.58 28.906-42.6 49.593-56.34 60.04v-71.7zm23.26 80.6c16.29-12.85 37.933-33.247 54.818-61.076 11.213 4.43 20.708 8.736 27.272 11.87-21.26 23.67-49.78 41.002-82.09 49.207zm95-65.677c-6.753-3.403-17.37-8.504-30.292-13.854 8.86-18.975 15.116-40.74 16.46-65.255h39.976c-1.25 29.448-10.705 56.41-26.143 79.108z"/><path d="M323.458 146.478h57.23V191.5L449 129.46l-68.312-63v44.53h-57.23c-10.895 0-10.895 35.488 0 35.488zM63.336 304.81H8.15c-10.866 0-10.866 37.604 0 37.604h55.186v46.864l67.028-65.59-67.028-66.604v47.727z"/></svg>