<?xml version="1.0" encoding="utf-8"?>
<!-- Generator: Adobe Illustrator 16.0.4, SVG Export Plug-In . SVG Version: 6.00 Build 0)  -->
<!DOCTYPE svg PUBLIC "-//W3C//DTD SVG 1.1//EN" "http://www.w3.org/Graphics/SVG/1.1/DTD/svg11.dtd">
<svg version="1.1" id="Layer_1" xmlns="http://www.w3.org/2000/svg" xmlns:xlink="http://www.w3.org/1999/xlink" x="0px" y="0px"
	 width="289px" height="10px" viewBox="0 0 289 10" enable-background="new 0 0 289 10" xml:space="preserve">
<g>
	<path fill="#FFFFFF" d="M4.615,9.891L3.225,7.02H2.274v2.871h-2.312V1.375H3.77c0.494,0,0.947,0.051,1.356,0.152
		c0.41,0.102,0.761,0.262,1.053,0.48c0.292,0.22,0.518,0.505,0.676,0.857c0.157,0.354,0.236,0.78,0.236,1.284
		c0,0.641-0.138,1.163-0.414,1.569C6.4,6.123,6.026,6.43,5.554,6.641l1.707,3.25H4.615z M4.505,3.552
		c-0.159-0.17-0.428-0.256-0.801-0.256h-1.43v1.862h1.394c0.392,0,0.668-0.08,0.831-0.243c0.163-0.161,0.245-0.397,0.245-0.705
		C4.744,3.942,4.664,3.723,4.505,3.552z"/>
	<path fill="#FFFFFF" d="M8.672,9.891V1.375h6.521v1.983h-4.184v1.144h2.518v1.948h-2.518v1.459h4.269v1.982H8.672z"/>
	<path fill="#FFFFFF" d="M23.853,7.609c-0.193,0.549-0.484,0.988-0.874,1.326c-0.391,0.338-0.87,0.578-1.443,0.73
		c-0.57,0.148-1.234,0.225-1.988,0.225h-2.761V1.375h2.979c0.665,0,1.271,0.068,1.812,0.207c0.542,0.138,1.004,0.371,1.381,0.699
		s0.669,0.76,0.876,1.295c0.206,0.536,0.31,1.205,0.31,2.008C24.146,6.385,24.048,7.061,23.853,7.609z M21.622,4.612
		c-0.07-0.285-0.182-0.515-0.334-0.694c-0.155-0.179-0.358-0.31-0.608-0.396c-0.252-0.085-0.56-0.128-0.924-0.128H19.17v4.478h0.512
		c0.365,0,0.678-0.039,0.937-0.115c0.259-0.076,0.472-0.203,0.638-0.377c0.167-0.174,0.286-0.404,0.359-0.693
		c0.073-0.287,0.109-0.643,0.109-1.064C21.725,5.231,21.691,4.895,21.622,4.612z"/>
	<path fill="#FFFFFF" d="M34.643,9.891V6.533h-2.651v3.357h-2.409V1.375h2.409v3.103h2.651V1.375h2.409v8.516H34.643z"/>
	<path fill="#FFFFFF" d="M44.278,9.891l-0.462-1.498h-2.554l-0.463,1.498h-2.53l3.09-8.516h2.385l3.089,8.516H44.278z M43.087,5.961
		c-0.073-0.277-0.139-0.515-0.195-0.719c-0.057-0.201-0.107-0.385-0.152-0.547c-0.045-0.162-0.083-0.31-0.115-0.443
		c-0.032-0.133-0.061-0.274-0.086-0.42c-0.023,0.146-0.052,0.288-0.085,0.425c-0.032,0.138-0.07,0.289-0.114,0.451
		c-0.045,0.161-0.096,0.344-0.153,0.547c-0.056,0.203-0.121,0.437-0.194,0.705L41.835,6.52h1.41L43.087,5.961z"/>
	<path fill="#FFFFFF" d="M51.286,3.432v6.459h-2.36V3.432h-2.385V1.375h7.129v2.057H51.286z"/>
	<path fill="#FFFFFF" d="M58.964,2.339c-0.081,0.194-0.192,0.363-0.337,0.506c-0.144,0.144-0.311,0.255-0.506,0.337
		c-0.195,0.081-0.405,0.122-0.632,0.122c-0.227,0-0.438-0.041-0.633-0.122s-0.364-0.192-0.507-0.337
		c-0.143-0.144-0.255-0.312-0.335-0.506c-0.082-0.194-0.123-0.405-0.123-0.632s0.041-0.439,0.123-0.633
		c0.079-0.194,0.191-0.363,0.335-0.506c0.144-0.143,0.312-0.255,0.507-0.336c0.195-0.082,0.406-0.123,0.633-0.123
		c0.227,0,0.438,0.041,0.632,0.123c0.194,0.08,0.363,0.192,0.506,0.336c0.144,0.143,0.255,0.312,0.337,0.506
		c0.081,0.193,0.122,0.406,0.122,0.633C59.086,1.935,59.045,2.145,58.964,2.339z M58.662,1.183
		c-0.065-0.159-0.153-0.293-0.265-0.405c-0.112-0.112-0.247-0.199-0.403-0.262c-0.156-0.062-0.323-0.093-0.504-0.093
		c-0.184,0-0.352,0.031-0.507,0.093c-0.156,0.062-0.289,0.148-0.4,0.262c-0.112,0.112-0.2,0.246-0.266,0.405
		C56.253,1.34,56.22,1.514,56.22,1.707c0,0.191,0.032,0.366,0.097,0.523c0.065,0.159,0.153,0.293,0.266,0.405
		c0.111,0.111,0.245,0.199,0.4,0.262c0.155,0.062,0.323,0.093,0.507,0.093c0.181,0,0.348-0.031,0.504-0.093
		c0.157-0.062,0.291-0.149,0.403-0.262c0.111-0.112,0.199-0.246,0.265-0.405c0.064-0.157,0.097-0.332,0.097-0.523
		C58.758,1.514,58.726,1.34,58.662,1.183z M57.772,2.535L57.49,1.951h-0.194v0.584h-0.474V0.799H57.6
		c0.203,0,0.366,0.044,0.49,0.129c0.125,0.086,0.187,0.232,0.187,0.438c0,0.133-0.029,0.239-0.087,0.321
		c-0.057,0.081-0.132,0.144-0.227,0.188l0.344,0.659L57.772,2.535L57.772,2.535z M57.75,1.244c-0.033-0.034-0.088-0.051-0.164-0.051
		h-0.291v0.376h0.283c0.079,0,0.136-0.016,0.169-0.048c0.035-0.033,0.051-0.08,0.051-0.143C57.798,1.324,57.783,1.28,57.75,1.244z"
		/>
</g>
<g>
	<path fill="#FFFFFF" d="M69.362,3.719C69.208,3.427,69.007,3.2,68.76,3.038c-0.248-0.162-0.565-0.243-0.955-0.243
		c-0.316,0-0.6,0.067-0.851,0.201c-0.251,0.134-0.462,0.32-0.632,0.56c-0.17,0.239-0.3,0.522-0.389,0.851
		c-0.089,0.328-0.134,0.691-0.134,1.088c0,0.381,0.044,0.735,0.134,1.063c0.089,0.329,0.221,0.614,0.395,0.857
		s0.387,0.434,0.639,0.571c0.251,0.139,0.535,0.207,0.851,0.207c0.389,0,0.707-0.085,0.955-0.255
		c0.247-0.171,0.484-0.446,0.711-0.827l1.435,0.852c-0.292,0.607-0.695,1.08-1.209,1.416c-0.515,0.337-1.162,0.505-1.94,0.505
		c-0.559,0-1.066-0.104-1.52-0.311c-0.454-0.206-0.845-0.5-1.173-0.881c-0.328-0.381-0.582-0.841-0.76-1.381
		c-0.179-0.539-0.268-1.145-0.268-1.817c0-0.648,0.093-1.242,0.28-1.782c0.186-0.539,0.446-1.001,0.778-1.386
		c0.332-0.385,0.729-0.685,1.191-0.9c0.462-0.214,0.973-0.322,1.532-0.322c0.397,0,0.758,0.047,1.082,0.14s0.614,0.223,0.87,0.389
		s0.478,0.365,0.669,0.596c0.19,0.231,0.354,0.484,0.492,0.76L69.362,3.719z"/>
	<path fill="#FFFFFF" d="M72.645,9.75V1.238h1.69v6.846h4.268V9.75H72.645z"/>
	<path fill="#FFFFFF" d="M86.61,7.33c-0.182,0.543-0.439,1.003-0.772,1.38s-0.729,0.667-1.192,0.87
		c-0.462,0.202-0.969,0.304-1.52,0.304c-0.559,0-1.068-0.1-1.526-0.298S80.75,9.1,80.421,8.723
		c-0.328-0.377-0.583-0.835-0.766-1.374c-0.182-0.539-0.273-1.153-0.273-1.843c0-0.688,0.091-1.305,0.273-1.848
		c0.183-0.543,0.44-1.003,0.772-1.38c0.332-0.377,0.729-0.667,1.191-0.87c0.462-0.203,0.973-0.304,1.532-0.304
		c0.551,0,1.056,0.1,1.514,0.298s0.851,0.486,1.179,0.863c0.329,0.377,0.584,0.835,0.766,1.374c0.183,0.539,0.274,1.153,0.274,1.843
		C86.884,6.171,86.793,6.787,86.61,7.33z M84.574,3.5c-0.373-0.47-0.859-0.706-1.459-0.706c-0.6,0-1.081,0.231-1.441,0.693
		c-0.361,0.462-0.541,1.126-0.541,1.995c0,0.867,0.187,1.536,0.56,2.006c0.373,0.47,0.859,0.705,1.459,0.705s1.08-0.23,1.441-0.693
		c0.361-0.462,0.542-1.126,0.542-1.994C85.133,4.639,84.946,3.97,84.574,3.5z"/>
	<path fill="#FFFFFF" d="M94.51,8.868c-0.607,0.677-1.453,1.016-2.537,1.016c-0.51,0-0.977-0.085-1.402-0.256
		c-0.425-0.17-0.787-0.419-1.086-0.747c-0.299-0.329-0.532-0.731-0.698-1.21s-0.249-1.029-0.249-1.654V1.238h1.69v4.754
		c0,0.689,0.155,1.232,0.464,1.63s0.736,0.596,1.281,0.596s0.974-0.194,1.287-0.584c0.313-0.389,0.47-0.928,0.47-1.617V1.238h1.69
		v4.754C95.42,7.232,95.117,8.191,94.51,8.868z"/>
	<path fill="#FFFFFF" d="M104.084,7.421c-0.247,0.54-0.576,0.981-0.985,1.326c-0.41,0.345-0.875,0.598-1.398,0.76
		s-1.056,0.243-1.599,0.243h-2.542V1.238h2.663c0.608,0,1.169,0.075,1.684,0.225c0.515,0.15,0.961,0.396,1.338,0.736
		s0.673,0.78,0.888,1.319c0.214,0.539,0.322,1.198,0.322,1.976C104.456,6.24,104.332,6.883,104.084,7.421z M102.106,3.551
		c-0.398-0.432-1.049-0.647-1.953-0.647h-0.903v5.18h0.842c0.447,0,0.835-0.062,1.165-0.188s0.6-0.301,0.812-0.526
		c0.211-0.226,0.37-0.498,0.476-0.817c0.105-0.318,0.159-0.671,0.159-1.059C102.705,4.631,102.505,3.983,102.106,3.551z"/>
	<path fill="#FFFFFF" d="M107.848,2.904v1.593h2.566v1.666h-2.566V9.75h-1.69V1.238h6.08v1.666H107.848z"/>
	<path fill="#FFFFFF" d="M120.1,7.33c-0.183,0.543-0.439,1.003-0.772,1.38c-0.333,0.377-0.729,0.667-1.192,0.87
		c-0.462,0.202-0.969,0.304-1.52,0.304c-0.559,0-1.068-0.1-1.526-0.298s-0.851-0.486-1.18-0.863
		c-0.328-0.377-0.583-0.835-0.766-1.374c-0.182-0.539-0.273-1.153-0.273-1.843c0-0.688,0.091-1.305,0.273-1.848
		c0.183-0.543,0.44-1.003,0.772-1.38c0.332-0.377,0.729-0.667,1.191-0.87c0.462-0.203,0.973-0.304,1.532-0.304
		c0.551,0,1.056,0.1,1.514,0.298s0.851,0.486,1.179,0.863c0.329,0.377,0.584,0.835,0.767,1.374c0.182,0.539,0.273,1.153,0.273,1.843
		C120.373,6.171,120.281,6.787,120.1,7.33z M118.062,3.5c-0.373-0.47-0.859-0.706-1.459-0.706c-0.6,0-1.081,0.231-1.441,0.693
		c-0.361,0.462-0.541,1.126-0.541,1.995c0,0.867,0.187,1.536,0.56,2.006c0.373,0.47,0.859,0.705,1.459,0.705s1.08-0.23,1.441-0.693
		c0.361-0.462,0.542-1.126,0.542-1.994C118.622,4.639,118.435,3.97,118.062,3.5z"/>
	<path fill="#FFFFFF" d="M127.02,9.75l-1.523-3.064h-1.719V9.75h-1.689V1.238h3.964c0.397,0,0.774,0.055,1.131,0.165
		c0.356,0.109,0.669,0.278,0.937,0.504c0.268,0.227,0.478,0.509,0.632,0.845s0.231,0.731,0.231,1.186
		c0,0.641-0.136,1.166-0.407,1.574c-0.271,0.41-0.68,0.72-1.223,0.931l1.63,3.308H127.02z M126.908,3.152
		c-0.216-0.166-0.515-0.248-0.897-0.248h-2.233V5.08h2.233c0.813,0,1.221-0.366,1.221-1.1
		C127.231,3.593,127.123,3.317,126.908,3.152z"/>
	<path fill="#FFFFFF" d="M137.031,9.75V6.625c0-0.113,0.002-0.26,0.007-0.438c0.004-0.179,0.006-0.361,0.006-0.547
		c0-0.188,0.002-0.361,0.006-0.523s0.006-0.284,0.006-0.365c-0.064,0.162-0.152,0.376-0.262,0.644
		c-0.11,0.268-0.222,0.523-0.335,0.767l-1.731,3.781l-1.723-3.781c-0.113-0.243-0.225-0.499-0.333-0.767
		c-0.109-0.268-0.196-0.482-0.261-0.644c0,0.081,0.002,0.203,0.006,0.365s0.006,0.336,0.006,0.523c0,0.186,0.002,0.368,0.006,0.547
		c0.004,0.178,0.007,0.324,0.007,0.438V9.75h-1.666V1.238h1.642l1.771,3.855c0.057,0.122,0.113,0.249,0.17,0.383
		s0.111,0.266,0.163,0.396c0.053,0.13,0.102,0.251,0.146,0.364c0.045,0.114,0.079,0.207,0.104,0.28
		c0.057-0.162,0.139-0.379,0.244-0.65s0.215-0.529,0.329-0.772l1.719-3.855h1.666V9.75H137.031z"/>
	<path fill="#FFFFFF" d="M146.966,8.281c-0.13,0.332-0.332,0.617-0.607,0.856c-0.276,0.238-0.623,0.422-1.04,0.552
		c-0.418,0.13-0.918,0.194-1.502,0.194c-0.713,0-1.361-0.138-1.945-0.413c-0.584-0.276-1.038-0.653-1.362-1.131l1.229-1.095
		c0.3,0.349,0.634,0.598,1.003,0.748c0.369,0.149,0.76,0.225,1.174,0.225c0.511,0,0.886-0.073,1.125-0.219
		c0.238-0.146,0.358-0.381,0.358-0.705c0-0.138-0.024-0.258-0.073-0.359c-0.049-0.101-0.14-0.196-0.273-0.285
		s-0.326-0.175-0.577-0.256c-0.252-0.081-0.576-0.166-0.974-0.255c-0.389-0.089-0.747-0.194-1.076-0.316
		c-0.328-0.121-0.609-0.275-0.845-0.462s-0.418-0.421-0.547-0.706c-0.13-0.284-0.194-0.636-0.194-1.058
		c0-0.389,0.078-0.738,0.236-1.046s0.375-0.569,0.65-0.784c0.276-0.215,0.599-0.379,0.967-0.493c0.369-0.113,0.765-0.17,1.186-0.17
		c0.665,0,1.247,0.119,1.745,0.355c0.499,0.237,0.95,0.567,1.356,0.992l-1.229,1.194c-0.275-0.284-0.569-0.5-0.882-0.65
		c-0.312-0.15-0.662-0.225-1.052-0.225c-0.227,0-0.417,0.022-0.571,0.067s-0.279,0.104-0.377,0.176s-0.166,0.154-0.207,0.243
		c-0.04,0.089-0.061,0.182-0.061,0.279c0,0.138,0.026,0.253,0.079,0.346s0.144,0.176,0.273,0.249s0.304,0.142,0.523,0.206
		c0.219,0.065,0.498,0.138,0.839,0.219c0.34,0.081,0.679,0.176,1.015,0.285c0.337,0.109,0.641,0.262,0.912,0.455
		c0.271,0.194,0.493,0.441,0.663,0.741c0.17,0.299,0.255,0.68,0.255,1.141C147.16,7.581,147.096,7.95,146.966,8.281z"/>
	<path fill="#FFFFFF" d="M158.749,9.75V6.625c0-0.113,0.002-0.26,0.007-0.438c0.004-0.179,0.006-0.361,0.006-0.547
		c0-0.188,0.002-0.361,0.006-0.523s0.006-0.284,0.006-0.365c-0.064,0.162-0.152,0.376-0.262,0.644
		c-0.11,0.268-0.222,0.523-0.335,0.767l-1.731,3.781l-1.723-3.781c-0.113-0.243-0.225-0.499-0.333-0.767
		c-0.109-0.268-0.196-0.482-0.261-0.644c0,0.081,0.002,0.203,0.006,0.365s0.006,0.336,0.006,0.523c0,0.186,0.002,0.368,0.006,0.547
		c0.004,0.178,0.007,0.324,0.007,0.438V9.75h-1.666V1.238h1.642l1.771,3.855c0.057,0.122,0.113,0.249,0.17,0.383
		s0.111,0.266,0.163,0.396c0.053,0.13,0.102,0.251,0.146,0.364c0.045,0.114,0.079,0.207,0.104,0.28
		c0.057-0.162,0.139-0.379,0.244-0.65s0.215-0.529,0.329-0.772l1.719-3.855h1.666V9.75H158.749z"/>
	<path fill="#FFFFFF" d="M168.307,9.75l-0.669-1.896h-3.112l-0.669,1.896h-1.824l3.259-8.512h1.654l3.234,8.512H168.307z
		 M166.507,4.691c-0.089-0.251-0.172-0.494-0.249-0.729c-0.077-0.235-0.136-0.434-0.176-0.596c-0.041,0.162-0.1,0.361-0.177,0.596
		c-0.077,0.235-0.16,0.479-0.249,0.729l-0.548,1.544h1.946L166.507,4.691z"/>
	<path fill="#FFFFFF" d="M177.147,9.75l-3.125-4.645c-0.105-0.163-0.217-0.335-0.335-0.518c-0.117-0.182-0.204-0.33-0.261-0.444
		c0,0.082,0.002,0.201,0.006,0.359s0.006,0.331,0.006,0.517c0,0.179,0.002,0.357,0.006,0.535c0.004,0.179,0.006,0.328,0.006,0.45
		V9.75h-1.689V1.238h1.642l3.005,4.5c0.105,0.162,0.217,0.334,0.334,0.517s0.203,0.33,0.26,0.444c0-0.081-0.002-0.201-0.006-0.359
		s-0.006-0.326-0.006-0.504c0-0.187-0.002-0.369-0.006-0.548c-0.005-0.178-0.006-0.328-0.006-0.45v-3.6h1.689V9.75H177.147z"/>
	<path fill="#FFFFFF" d="M186.51,9.75l-0.669-1.896h-3.112L182.06,9.75h-1.824l3.259-8.512h1.654l3.234,8.512H186.51z M184.71,4.691
		c-0.089-0.251-0.172-0.494-0.249-0.729c-0.077-0.235-0.136-0.434-0.176-0.596c-0.041,0.162-0.1,0.361-0.177,0.596
		c-0.077,0.235-0.16,0.479-0.249,0.729l-0.548,1.544h1.946L184.71,4.691z"/>
	<path fill="#FFFFFF" d="M196.093,7.925c-0.171,0.425-0.407,0.782-0.712,1.074c-0.304,0.291-0.665,0.511-1.082,0.66
		c-0.418,0.149-0.874,0.225-1.368,0.225c-0.56,0-1.065-0.104-1.52-0.311c-0.454-0.206-0.846-0.5-1.174-0.881
		s-0.582-0.841-0.76-1.381c-0.179-0.539-0.268-1.145-0.268-1.817c0-0.648,0.093-1.242,0.279-1.782
		c0.187-0.539,0.446-1.001,0.778-1.386c0.333-0.385,0.729-0.685,1.192-0.9c0.462-0.214,0.973-0.322,1.531-0.322
		c0.438,0,0.825,0.049,1.162,0.146c0.336,0.098,0.634,0.239,0.894,0.426c0.259,0.187,0.484,0.412,0.675,0.675
		c0.19,0.264,0.354,0.558,0.492,0.882l-1.617,0.668c-0.081-0.154-0.168-0.3-0.262-0.438c-0.093-0.138-0.202-0.255-0.328-0.353
		c-0.126-0.098-0.273-0.174-0.443-0.231c-0.171-0.057-0.369-0.085-0.596-0.085c-0.316,0-0.601,0.067-0.852,0.201
		s-0.462,0.32-0.633,0.56c-0.17,0.239-0.3,0.522-0.389,0.851c-0.089,0.328-0.134,0.691-0.134,1.088c0,0.389,0.045,0.75,0.134,1.082
		c0.089,0.333,0.221,0.62,0.396,0.863c0.174,0.243,0.387,0.434,0.638,0.571c0.252,0.139,0.535,0.207,0.852,0.207
		c0.292,0,0.539-0.032,0.742-0.098c0.202-0.064,0.366-0.153,0.492-0.267c0.125-0.114,0.223-0.25,0.292-0.408
		c0.068-0.157,0.115-0.33,0.14-0.517h-1.35V5.348h3.052v1.116C196.348,7.014,196.263,7.501,196.093,7.925z"/>
	<path fill="#FFFFFF" d="M198.147,9.75V1.238h5.897v1.666h-4.208v1.459h2.444v1.666h-2.444v2.055h4.391V9.75H198.147z"/>
	<path fill="#FFFFFF" d="M212.313,9.75V6.625c0-0.113,0.002-0.26,0.007-0.438c0.004-0.179,0.006-0.361,0.006-0.547
		c0-0.188,0.002-0.361,0.006-0.523s0.006-0.284,0.006-0.365c-0.064,0.162-0.152,0.376-0.262,0.644
		c-0.11,0.268-0.222,0.523-0.335,0.767l-1.731,3.781l-1.723-3.781c-0.113-0.243-0.225-0.499-0.333-0.767
		c-0.109-0.268-0.196-0.482-0.261-0.644c0,0.081,0.002,0.203,0.006,0.365s0.006,0.336,0.006,0.523c0,0.186,0.002,0.368,0.006,0.547
		c0.004,0.178,0.007,0.324,0.007,0.438V9.75h-1.666V1.238h1.642l1.771,3.855c0.057,0.122,0.113,0.249,0.17,0.383
		s0.111,0.266,0.163,0.396c0.053,0.13,0.102,0.251,0.146,0.364c0.045,0.114,0.079,0.207,0.104,0.28
		c0.057-0.162,0.139-0.379,0.244-0.65s0.215-0.529,0.329-0.772l1.719-3.855h1.666V9.75H212.313z"/>
	<path fill="#FFFFFF" d="M216.205,9.75V1.238h5.897v1.666h-4.208v1.459h2.444v1.666h-2.444v2.055h4.391V9.75H216.205z"/>
	<path fill="#FFFFFF" d="M229.496,9.75l-3.125-4.645c-0.105-0.163-0.217-0.335-0.335-0.518c-0.117-0.182-0.204-0.33-0.261-0.444
		c0,0.082,0.002,0.201,0.006,0.359s0.006,0.331,0.006,0.517c0,0.179,0.002,0.357,0.006,0.535c0.004,0.179,0.006,0.328,0.006,0.45
		V9.75h-1.689V1.238h1.642l3.005,4.5c0.105,0.162,0.217,0.334,0.334,0.517s0.203,0.33,0.26,0.444c0-0.081-0.002-0.201-0.006-0.359
		s-0.006-0.326-0.006-0.504c0-0.187-0.002-0.369-0.006-0.548c-0.005-0.178-0.006-0.328-0.006-0.45v-3.6h1.689V9.75H229.496z"/>
	<path fill="#FFFFFF" d="M236.779,2.904V9.75h-1.69V2.904h-2.444V1.238h6.579v1.666H236.779z"/>
	<path fill="#FFFFFF" d="M244.404,9.75V1.238h5.897v1.666h-4.208v1.459h2.444v1.666h-2.444v2.055h4.391V9.75H244.404z"/>
	<path fill="#FFFFFF" d="M257.694,9.75l-3.125-4.645c-0.105-0.163-0.217-0.335-0.335-0.518c-0.117-0.182-0.204-0.33-0.261-0.444
		c0,0.082,0.002,0.201,0.006,0.359s0.006,0.331,0.006,0.517c0,0.179,0.002,0.357,0.006,0.535c0.004,0.179,0.006,0.328,0.006,0.45
		V9.75h-1.689V1.238h1.642l3.005,4.5c0.105,0.162,0.217,0.334,0.334,0.517s0.203,0.33,0.26,0.444c0-0.081-0.002-0.201-0.006-0.359
		s-0.006-0.326-0.006-0.504c0-0.187-0.002-0.369-0.006-0.548c-0.005-0.178-0.006-0.328-0.006-0.45v-3.6h1.689V9.75H257.694z"/>
	<path fill="#FFFFFF" d="M267.824,7.925c-0.171,0.425-0.407,0.782-0.712,1.074c-0.304,0.291-0.665,0.511-1.082,0.66
		c-0.418,0.149-0.874,0.225-1.368,0.225c-0.56,0-1.065-0.104-1.52-0.311c-0.454-0.206-0.846-0.5-1.174-0.881
		s-0.582-0.841-0.76-1.381c-0.179-0.539-0.268-1.145-0.268-1.817c0-0.648,0.093-1.242,0.279-1.782
		c0.187-0.539,0.446-1.001,0.778-1.386c0.333-0.385,0.729-0.685,1.192-0.9c0.462-0.214,0.973-0.322,1.531-0.322
		c0.438,0,0.825,0.049,1.162,0.146c0.336,0.098,0.634,0.239,0.894,0.426c0.259,0.187,0.484,0.412,0.675,0.675
		c0.19,0.264,0.354,0.558,0.492,0.882l-1.617,0.668c-0.081-0.154-0.168-0.3-0.262-0.438c-0.093-0.138-0.202-0.255-0.328-0.353
		c-0.126-0.098-0.273-0.174-0.443-0.231c-0.171-0.057-0.369-0.085-0.596-0.085c-0.316,0-0.601,0.067-0.852,0.201
		s-0.462,0.32-0.633,0.56c-0.17,0.239-0.3,0.522-0.389,0.851c-0.089,0.328-0.134,0.691-0.134,1.088c0,0.389,0.045,0.75,0.134,1.082
		c0.089,0.333,0.221,0.62,0.396,0.863c0.174,0.243,0.387,0.434,0.638,0.571c0.252,0.139,0.535,0.207,0.852,0.207
		c0.292,0,0.539-0.032,0.742-0.098c0.202-0.064,0.366-0.153,0.492-0.267c0.125-0.114,0.223-0.25,0.292-0.408
		c0.068-0.157,0.115-0.33,0.14-0.517h-1.35V5.348h3.052v1.116C268.079,7.014,267.994,7.501,267.824,7.925z"/>
	<path fill="#FFFFFF" d="M270,9.75V1.238h1.69V9.75H270z"/>
	<path fill="#FFFFFF" d="M279.4,9.75l-3.125-4.645c-0.105-0.163-0.217-0.335-0.335-0.518c-0.117-0.182-0.204-0.33-0.261-0.444
		c0,0.082,0.002,0.201,0.006,0.359s0.006,0.331,0.006,0.517c0,0.179,0.002,0.357,0.006,0.535c0.004,0.179,0.006,0.328,0.006,0.45
		V9.75h-1.689V1.238h1.642l3.005,4.5c0.105,0.162,0.217,0.334,0.334,0.517s0.203,0.33,0.26,0.444c0-0.081-0.002-0.201-0.006-0.359
		s-0.006-0.326-0.006-0.504c0-0.187-0.002-0.369-0.006-0.548c-0.005-0.178-0.006-0.328-0.006-0.45v-3.6h1.689V9.75H279.4z"/>
	<path fill="#FFFFFF" d="M283.097,9.75V1.238h5.897v1.666h-4.208v1.459h2.444v1.666h-2.444v2.055h4.391V9.75H283.097z"/>
</g>
<text transform="matrix(1 0 0 1 29.4033 9)" display="none" fill="#FFFFFF" font-family="'Interstate-Bold'" font-size="12.16">CLOUDFORMS MANAGEMENT ENGINE</text>
</svg>
