<?xml version="1.0" encoding="utf-8"?>
<!-- Generator: Adobe Illustrator 14.0.0, SVG Export Plug-In . SVG Version: 6.00 Build 43363)  -->
<!DOCTYPE svg PUBLIC "-//W3C//DTD SVG 1.1//EN" "http://www.w3.org/Graphics/SVG/1.1/DTD/svg11.dtd">
<svg version="1.1"
	 id="svg3909" xmlns:svg="http://www.w3.org/2000/svg" xmlns:inkscape="http://www.inkscape.org/namespaces/inkscape" sodipodi:docname="logo_master.svg" inkscape:export-ydpi="200" xmlns:dc="http://purl.org/dc/elements/1.1/" xmlns:cc="http://creativecommons.org/ns#" xmlns:sodipodi="http://sodipodi.sourceforge.net/DTD/sodipodi-0.dtd" inkscape:version="0.48+devel r12197" xmlns:rdf="http://www.w3.org/1999/02/22-rdf-syntax-ns#" inkscape:export-xdpi="200" inkscape:export-filename="/home/emily/Devel/libra/Site 2.0/redhat-ux/Products/openshift/graphics/testlogo.png"
	 xmlns="http://www.w3.org/2000/svg" xmlns:xlink="http://www.w3.org/1999/xlink" x="0px" y="0px" width="32.001px"
	 height="29.39px" viewBox="-224 306.61 32.001 29.39" enable-background="new -224 306.61 32.001 29.39" xml:space="preserve">
<sodipodi:namedview  inkscape:window-maximized="1" id="namedview3911" inkscape:guide-bbox="true" showguides="true" inkscape:current-layer="g3917" inkscape:zoom="0.45254834" inkscape:window-y="27" inkscape:window-x="1680" inkscape:cy="496.70297" inkscape:cx="735.1457" inkscape:snap-global="false" pagecolor="#ffffff" inkscape:window-width="1366" inkscape:pageshadow="2" inkscape:pageopacity="0" inkscape:window-height="707" bordercolor="#666666" borderopacity="1" guidetolerance="10" gridtolerance="10" objecttolerance="10" showgrid="true">
	
		<inkscape:grid  snapvisiblegridlinesonly="true" units="mm" type="axonomgrid" color="#ff00ff" enabled="false" visible="true" id="grid3912" opacity="0.1254902" empopacity="0.25098039" empcolor="#0000ff" gridanglez="20" gridanglex="20" empspacing="3">
		</inkscape:grid>
	
		<inkscape:grid  snapvisiblegridlinesonly="true" units="mm" type="axonomgrid" enabled="false" visible="true" id="grid3914" empspacing="5">
		</inkscape:grid>
	<inkscape:grid  snapvisiblegridlinesonly="true" type="xygrid" enabled="false" visible="true" id="grid3922" empspacing="5">
		</inkscape:grid>
</sodipodi:namedview>
<g id="g3917" transform="matrix(1.25,0,0,-1.25,0,960)" inkscape:label="logo" inkscape:groupmode="layer">
	<g id="g3448" transform="translate(-2.9077049,89.174136)">
		<g id="g3919">
			<g>
				<g id="g3921">
					<g id="g3927" transform="translate(304.9634,416.0308)">
						<path id="path3929" inkscape:connector-curvature="0" fill="#C32034" d="M-473.821,6.964l-4.111-1.496
							c0.052-0.659,0.166-1.31,0.326-1.948l3.905,1.422C-473.828,5.601-473.874,6.282-473.821,6.964"/>
					</g>
					<g id="g3931" transform="translate(418.7466,444.5015)">
						<path id="path3933" inkscape:connector-curvature="0" fill="#C32034" d="M-569.438-16.962
							c-0.287,0.591-0.618,1.163-1.002,1.702l-4.11-1.496c0.478-0.489,0.879-1.039,1.207-1.627L-569.438-16.962z"/>
					</g>
					<g id="g3935" transform="translate(362.1055,451.793)">
						<path id="path3937" inkscape:connector-curvature="0" fill="#DB212F" d="M-521.841-23.089c0.855-0.399,1.596-0.943,2.22-1.582
							l4.11,1.496c-1.138,1.597-2.689,2.932-4.589,3.819c-5.875,2.739-12.884,0.188-15.624-5.686
							c-0.886-1.901-1.216-3.92-1.061-5.875l4.11,1.496c0.068,0.891,0.286,1.783,0.684,2.639
							C-530.21-22.966-525.657-21.31-521.841-23.089"/>
					</g>
					<g id="g3939" transform="translate(282.8599,395.0469)">
						<path id="path3941" inkscape:connector-curvature="0" fill="#EA2227" d="M-455.248,24.597l-3.905-1.422
							c0.359-1.424,0.98-2.777,1.836-3.98l4.101,1.493C-454.268,21.768-454.968,23.136-455.248,24.597"/>
					</g>
					<g id="g3943" transform="translate(389.5596,404.7539)">
						<path id="path3945" inkscape:connector-curvature="0" fill="#DB212F" d="M-544.911,16.44c-0.065-0.89-0.29-1.783-0.689-2.639
							c-1.78-3.817-6.333-5.473-10.15-3.694c-0.856,0.4-1.602,0.939-2.225,1.579l-4.101-1.493c1.136-1.597,2.684-2.932,4.584-3.82
							c5.875-2.739,12.884-0.188,15.623,5.688c0.887,1.9,1.214,3.919,1.058,5.873L-544.911,16.44z"/>
					</g>
					<g id="g3947" transform="translate(395.8906,436.1816)">
						<path id="path3949" inkscape:connector-curvature="0" fill="#EA2227" d="M-550.232-9.97l-3.906-1.421
							c0.725-1.3,1.068-2.796,0.956-4.302l4.101,1.492C-549.198-12.729-549.589-11.292-550.232-9.97"/>
					</g>
					<g id="g3951" transform="translate(279.2158,406.6621)">
						<path id="path3953" inkscape:connector-curvature="0" fill="#AD213A" d="M-452.185,14.836l4.1,1.479l-0.016-0.811l-3.956-1.47
							L-452.185,14.836z"/>
					</g>
					<g id="g3955" transform="translate(386.7266,445.8594)">
						<path id="path3957" inkscape:connector-curvature="0" fill="#AD213A" d="M-542.531-18.103l4.164,1.407l0.433-0.643
							l-4.046-1.408L-542.531-18.103z"/>
					</g>
					<g id="g3959" transform="translate(282.0435,365.709)">
						<path id="path3961" inkscape:connector-curvature="0" fill="#BA2034" d="M-454.561,49.251l4.105,1.47l1.242-1.154
							l-4.305-1.591L-454.561,49.251z"/>
					</g>
					<g id="g3963" transform="translate(415.6782,414.0278)">
						<path id="path3965" inkscape:connector-curvature="0" fill="#BA2034" d="M-566.86,8.646l-4.17-1.48l-0.307-1.643l4.446,1.56
							L-566.86,8.646z"/>
					</g>
				</g>
			</g>
		</g>
	</g>
</g>
</svg>
