<?xml version="1.0" encoding="utf-8"?>
<!-- Generator: Adobe Illustrator 16.0.0, SVG Export Plug-In . SVG Version: 6.00 Build 0)  -->
<!DOCTYPE svg PUBLIC "-//W3C//DTD SVG 1.1//EN" "http://www.w3.org/Graphics/SVG/1.1/DTD/svg11.dtd">
<svg version="1.1" xmlns="http://www.w3.org/2000/svg" xmlns:xlink="http://www.w3.org/1999/xlink" x="0px" y="0px" width="448px"
	 height="448px" viewBox="0 0 448 448" enable-background="new 0 0 448 448" xml:space="preserve">
<g id="Layer_3" display="none">
	<g id="Grid" display="inline">
		<g id="icomoon-ignore">
			<line opacity="0.3" fill="none" stroke="#449FDB" enable-background="new    " x1="16" y1="0" x2="16" y2="448"/>
			<line fill="none" stroke="#449FDB" x1="32" y1="0" x2="32" y2="448"/>
			<line opacity="0.3" fill="none" stroke="#449FDB" enable-background="new    " x1="48" y1="0" x2="48" y2="448"/>
			<line fill="none" stroke="#449FDB" x1="64" y1="0" x2="64" y2="448"/>
			<line opacity="0.3" fill="none" stroke="#449FDB" enable-background="new    " x1="80" y1="0" x2="80" y2="448"/>
			<line fill="none" stroke="#449FDB" x1="96" y1="0" x2="96" y2="448"/>
			<line opacity="0.3" fill="none" stroke="#449FDB" enable-background="new    " x1="112" y1="0" x2="112" y2="448"/>
			<line fill="none" stroke="#449FDB" x1="128" y1="0" x2="128" y2="448"/>
			<line opacity="0.3" fill="none" stroke="#449FDB" enable-background="new    " x1="144" y1="0" x2="144" y2="448"/>
			<line fill="none" stroke="#449FDB" x1="160" y1="0" x2="160" y2="448"/>
			<line opacity="0.3" fill="none" stroke="#449FDB" enable-background="new    " x1="176" y1="0" x2="176" y2="448"/>
			<line fill="none" stroke="#449FDB" x1="192" y1="0" x2="192" y2="448"/>
			<line opacity="0.3" fill="none" stroke="#449FDB" enable-background="new    " x1="208" y1="0" x2="208" y2="448"/>
			<line fill="none" stroke="#449FDB" x1="224" y1="0" x2="224" y2="448"/>
			<line opacity="0.3" fill="none" stroke="#449FDB" enable-background="new    " x1="240" y1="0" x2="240" y2="448"/>
			<line fill="none" stroke="#449FDB" x1="256" y1="0" x2="256" y2="448"/>
			<line opacity="0.3" fill="none" stroke="#449FDB" enable-background="new    " x1="272" y1="0" x2="272" y2="448"/>
			<line fill="none" stroke="#449FDB" x1="288" y1="0" x2="288" y2="448"/>
			<line opacity="0.3" fill="none" stroke="#449FDB" enable-background="new    " x1="304" y1="0" x2="304" y2="448"/>
			<line fill="none" stroke="#449FDB" x1="320" y1="0" x2="320" y2="448"/>
			<line opacity="0.3" fill="none" stroke="#449FDB" enable-background="new    " x1="336" y1="0" x2="336" y2="448"/>
			<line fill="none" stroke="#449FDB" x1="352" y1="0" x2="352" y2="448"/>
			<line opacity="0.3" fill="none" stroke="#449FDB" enable-background="new    " x1="368" y1="0" x2="368" y2="448"/>
			<line fill="none" stroke="#449FDB" x1="384" y1="0" x2="384" y2="448"/>
			<line opacity="0.3" fill="none" stroke="#449FDB" enable-background="new    " x1="400" y1="0" x2="400" y2="448"/>
			<line fill="none" stroke="#449FDB" x1="416" y1="0" x2="416" y2="448"/>
			<line opacity="0.3" fill="none" stroke="#449FDB" enable-background="new    " x1="432" y1="0" x2="432" y2="448"/>
			<line opacity="0.3" fill="none" stroke="#449FDB" enable-background="new    " x1="0" y1="16" x2="448" y2="16"/>
			<line fill="none" stroke="#449FDB" x1="0" y1="32" x2="448" y2="32"/>
			<line opacity="0.3" fill="none" stroke="#449FDB" enable-background="new    " x1="0" y1="48" x2="448" y2="48"/>
			<line fill="none" stroke="#449FDB" x1="0" y1="64" x2="448" y2="64"/>
			<line opacity="0.3" fill="none" stroke="#449FDB" enable-background="new    " x1="0" y1="80" x2="448" y2="80"/>
			<line fill="none" stroke="#449FDB" x1="0" y1="96" x2="448" y2="96"/>
			<line opacity="0.3" fill="none" stroke="#449FDB" enable-background="new    " x1="0" y1="112" x2="448" y2="112"/>
			<line fill="none" stroke="#449FDB" x1="0" y1="128" x2="448" y2="128"/>
			<line opacity="0.3" fill="none" stroke="#449FDB" enable-background="new    " x1="0" y1="144" x2="448" y2="144"/>
			<line fill="none" stroke="#449FDB" x1="0" y1="160" x2="448" y2="160"/>
			<line opacity="0.3" fill="none" stroke="#449FDB" enable-background="new    " x1="0" y1="176" x2="448" y2="176"/>
			<line fill="none" stroke="#449FDB" x1="0" y1="192" x2="448" y2="192"/>
			<line opacity="0.3" fill="none" stroke="#449FDB" enable-background="new    " x1="0" y1="208" x2="448" y2="208"/>
			<line fill="none" stroke="#449FDB" x1="0" y1="224" x2="448" y2="224"/>
			<line opacity="0.3" fill="none" stroke="#449FDB" enable-background="new    " x1="0" y1="240" x2="448" y2="240"/>
			<line fill="none" stroke="#449FDB" x1="0" y1="256" x2="448" y2="256"/>
			<line opacity="0.3" fill="none" stroke="#449FDB" enable-background="new    " x1="0" y1="272" x2="448" y2="272"/>
			<line fill="none" stroke="#449FDB" x1="0" y1="288" x2="448" y2="288"/>
			<line opacity="0.3" fill="none" stroke="#449FDB" enable-background="new    " x1="0" y1="304" x2="448" y2="304"/>
			<line fill="none" stroke="#449FDB" x1="0" y1="320" x2="448" y2="320"/>
			<line opacity="0.3" fill="none" stroke="#449FDB" enable-background="new    " x1="0" y1="336" x2="448" y2="336"/>
			<line fill="none" stroke="#449FDB" x1="0" y1="352" x2="448" y2="352"/>
			<line opacity="0.3" fill="none" stroke="#449FDB" enable-background="new    " x1="0" y1="368" x2="448" y2="368"/>
			<line fill="none" stroke="#449FDB" x1="0" y1="384" x2="448" y2="384"/>
			<line opacity="0.3" fill="none" stroke="#449FDB" enable-background="new    " x1="0" y1="400" x2="448" y2="400"/>
			<line fill="none" stroke="#449FDB" x1="0" y1="416" x2="448" y2="416"/>
			<line opacity="0.3" fill="none" stroke="#449FDB" enable-background="new    " x1="0" y1="432" x2="448" y2="432"/>
		</g>
	</g>
</g>
<g id="Layer_6">
	<g id="Right">
		<path d="M447,282.5c-5.5-44.5-34-77.5-72.5-77.5c-24.006,0-33.5,10-33.5,10s5.796,16.979,7,36c2.5,39.5,2,145,2,145l97-0.167
			V281.5"/>
		<circle cx="373.596" cy="153.289" r="40.514"/>
	</g>
	<g id="Left_1_">
		<path d="M1,282.5C6.5,238,35,205,73.5,205c24.005,0,33.5,10,33.5,10s-5.796,16.979-7,36c-2.5,39.5-2,145-2,145l-97-0.167V281.5"/>
		<circle cx="74.404" cy="153.289" r="40.513"/>
	</g>
	<g id="Middle">
		<g>
			<polyline points="322.03,253.43 322.03,428.225 126.169,428.225 126.169,253.43 			"/>
			<path d="M322.03,256.689c0-61.884-43.847-112.051-97.931-112.051c-54.086,0-97.93,50.167-97.93,112.051"/>
		</g>
		<circle cx="224.765" cy="73.854" r="54.417"/>
	</g>
</g>
<g id="Layer_4">
</g>
</svg>
