<?xml version="1.0" encoding="utf-8"?>
<!-- Generator: Adobe Illustrator 16.0.4, SVG Export Plug-In . SVG Version: 6.00 Build 0)  -->
<!DOCTYPE svg PUBLIC "-//W3C//DTD SVG 1.1//EN" "http://www.w3.org/Graphics/SVG/1.1/DTD/svg11.dtd">
<svg version="1.1" id="Layer_1" xmlns="http://www.w3.org/2000/svg" xmlns:xlink="http://www.w3.org/1999/xlink" x="0px" y="0px"
	 width="448px" height="448px" viewBox="0 0 448 448" enable-background="new 0 0 448 448" xml:space="preserve">
<g id="Layer_3" display="none">
	<g id="Grid" display="inline">
		<g id="icomoon-ignore">
			<line opacity="0.3" fill="none" stroke="#449FDB" enable-background="new    " x1="16" y1="0" x2="16" y2="448"/>
			<line fill="none" stroke="#449FDB" x1="32" y1="0" x2="32" y2="448"/>
			<line opacity="0.3" fill="none" stroke="#449FDB" enable-background="new    " x1="48" y1="0" x2="48" y2="448"/>
			<line fill="none" stroke="#449FDB" x1="64" y1="0" x2="64" y2="448"/>
			<line opacity="0.3" fill="none" stroke="#449FDB" enable-background="new    " x1="80" y1="0" x2="80" y2="448"/>
			<line fill="none" stroke="#449FDB" x1="96" y1="0" x2="96" y2="448"/>
			<line opacity="0.3" fill="none" stroke="#449FDB" enable-background="new    " x1="112" y1="0" x2="112" y2="448"/>
			<line fill="none" stroke="#449FDB" x1="128" y1="0" x2="128" y2="448"/>
			<line opacity="0.3" fill="none" stroke="#449FDB" enable-background="new    " x1="144" y1="0" x2="144" y2="448"/>
			<line fill="none" stroke="#449FDB" x1="160" y1="0" x2="160" y2="448"/>
			<line opacity="0.3" fill="none" stroke="#449FDB" enable-background="new    " x1="176" y1="0" x2="176" y2="448"/>
			<line fill="none" stroke="#449FDB" x1="192" y1="0" x2="192" y2="448"/>
			<line opacity="0.3" fill="none" stroke="#449FDB" enable-background="new    " x1="208" y1="0" x2="208" y2="448"/>
			<line fill="none" stroke="#449FDB" x1="224" y1="0" x2="224" y2="448"/>
			<line opacity="0.3" fill="none" stroke="#449FDB" enable-background="new    " x1="240" y1="0" x2="240" y2="448"/>
			<line fill="none" stroke="#449FDB" x1="256" y1="0" x2="256" y2="448"/>
			<line opacity="0.3" fill="none" stroke="#449FDB" enable-background="new    " x1="272" y1="0" x2="272" y2="448"/>
			<line fill="none" stroke="#449FDB" x1="288" y1="0" x2="288" y2="448"/>
			<line opacity="0.3" fill="none" stroke="#449FDB" enable-background="new    " x1="304" y1="0" x2="304" y2="448"/>
			<line fill="none" stroke="#449FDB" x1="320" y1="0" x2="320" y2="448"/>
			<line opacity="0.3" fill="none" stroke="#449FDB" enable-background="new    " x1="336" y1="0" x2="336" y2="448"/>
			<line fill="none" stroke="#449FDB" x1="352" y1="0" x2="352" y2="448"/>
			<line opacity="0.3" fill="none" stroke="#449FDB" enable-background="new    " x1="368" y1="0" x2="368" y2="448"/>
			<line fill="none" stroke="#449FDB" x1="384" y1="0" x2="384" y2="448"/>
			<line opacity="0.3" fill="none" stroke="#449FDB" enable-background="new    " x1="400" y1="0" x2="400" y2="448"/>
			<line fill="none" stroke="#449FDB" x1="416" y1="0" x2="416" y2="448"/>
			<line opacity="0.3" fill="none" stroke="#449FDB" enable-background="new    " x1="432" y1="0" x2="432" y2="448"/>
			<line opacity="0.3" fill="none" stroke="#449FDB" enable-background="new    " x1="0" y1="16" x2="448" y2="16"/>
			<line fill="none" stroke="#449FDB" x1="0" y1="32" x2="448" y2="32"/>
			<line opacity="0.3" fill="none" stroke="#449FDB" enable-background="new    " x1="0" y1="48" x2="448" y2="48"/>
			<line fill="none" stroke="#449FDB" x1="0" y1="64" x2="448" y2="64"/>
			<line opacity="0.3" fill="none" stroke="#449FDB" enable-background="new    " x1="0" y1="80" x2="448" y2="80"/>
			<line fill="none" stroke="#449FDB" x1="0" y1="96" x2="448" y2="96"/>
			<line opacity="0.3" fill="none" stroke="#449FDB" enable-background="new    " x1="0" y1="112" x2="448" y2="112"/>
			<line fill="none" stroke="#449FDB" x1="0" y1="128" x2="448" y2="128"/>
			<line opacity="0.3" fill="none" stroke="#449FDB" enable-background="new    " x1="0" y1="144" x2="448" y2="144"/>
			<line fill="none" stroke="#449FDB" x1="0" y1="160" x2="448" y2="160"/>
			<line opacity="0.3" fill="none" stroke="#449FDB" enable-background="new    " x1="0" y1="176" x2="448" y2="176"/>
			<line fill="none" stroke="#449FDB" x1="0" y1="192" x2="448" y2="192"/>
			<line opacity="0.3" fill="none" stroke="#449FDB" enable-background="new    " x1="0" y1="208" x2="448" y2="208"/>
			<line fill="none" stroke="#449FDB" x1="0" y1="224" x2="448" y2="224"/>
			<line opacity="0.3" fill="none" stroke="#449FDB" enable-background="new    " x1="0" y1="240" x2="448" y2="240"/>
			<line fill="none" stroke="#449FDB" x1="0" y1="256" x2="448" y2="256"/>
			<line opacity="0.3" fill="none" stroke="#449FDB" enable-background="new    " x1="0" y1="272" x2="448" y2="272"/>
			<line fill="none" stroke="#449FDB" x1="0" y1="288" x2="448" y2="288"/>
			<line opacity="0.3" fill="none" stroke="#449FDB" enable-background="new    " x1="0" y1="304" x2="448" y2="304"/>
			<line fill="none" stroke="#449FDB" x1="0" y1="320" x2="448" y2="320"/>
			<line opacity="0.3" fill="none" stroke="#449FDB" enable-background="new    " x1="0" y1="336" x2="448" y2="336"/>
			<line fill="none" stroke="#449FDB" x1="0" y1="352" x2="448" y2="352"/>
			<line opacity="0.3" fill="none" stroke="#449FDB" enable-background="new    " x1="0" y1="368" x2="448" y2="368"/>
			<line fill="none" stroke="#449FDB" x1="0" y1="384" x2="448" y2="384"/>
			<line opacity="0.3" fill="none" stroke="#449FDB" enable-background="new    " x1="0" y1="400" x2="448" y2="400"/>
			<line fill="none" stroke="#449FDB" x1="0" y1="416" x2="448" y2="416"/>
			<line opacity="0.3" fill="none" stroke="#449FDB" enable-background="new    " x1="0" y1="432" x2="448" y2="432"/>
		</g>
	</g>
</g>
<g>
	<path d="M445.129,255.839c-1.918-2.748-4.457-4.704-7.622-5.873l-87.958-31.983c-1.833-0.666-3.665-1-5.494-1
		c-0.09,0-0.178,0.004-0.264,0.006c-0.087-0.002-0.176-0.006-0.262-0.006c-1.831,0-3.664,0.333-5.497,1l-87.957,31.983
		c-3.164,1.169-5.704,3.125-7.621,5.873c-1.915,2.748-2.873,5.789-2.873,9.12v95.952c0,2.917,0.75,5.623,2.249,8.121
		c1.499,2.499,3.54,4.458,6.121,5.873l87.956,44.096c2.334,1.331,4.872,1.999,7.622,1.999c0.088,0,0.175-0.007,0.262-0.007
		c0.086,0,0.172,0.007,0.264,0.007c2.744,0,5.286-0.668,7.618-1.999l87.958-34.387c2.58-1.415,4.621-3.374,6.119-5.874
		c1.502-2.497,2.25-5.203,2.25-8.12V264.959C448.002,261.629,447.043,258.587,445.129,255.839z M432.01,356.812l-88.15,39.342
		l-88.287-39.342v-15.028l88.287,37.484l88.15-37.484V356.812z M432.01,309.197l-88.149,39.506l-88.287-39.506v-16.735
		l88.287,36.425l88.15-36.966L432.01,309.197z"/>
	<path d="M321.571,187.845c1.501-2.499,2.251-5.205,2.251-8.121V74.062c0-3.33-0.959-6.372-2.873-9.119
		c-1.917-2.749-4.458-4.706-7.621-5.874l-87.957-31.983c-1.834-0.666-3.667-1-5.497-1c-0.088,0-0.175,0.004-0.263,0.006
		c-0.086-0.002-0.174-0.006-0.261-0.006c-1.831,0-3.665,0.334-5.498,1l-87.957,31.983c-3.165,1.168-5.705,3.125-7.621,5.874
		c-1.916,2.748-2.874,5.79-2.874,9.119v105.662c0,2.916,0.75,5.622,2.249,8.121c1.5,2.499,3.541,4.458,6.123,5.873l87.956,34.388
		c2.333,1.33,4.871,1.998,7.622,1.998c0.088,0,0.174-0.006,0.261-0.006s0.173,0.006,0.263,0.006c2.746,0,5.288-0.668,7.62-1.998
		l87.957-34.388C318.031,192.303,320.074,190.344,321.571,187.845z M307.83,166.887l-88.149,38.37l-88.286-38.37v-15.029
		l88.286,36.514l88.149-36.514V166.887z M307.829,118.301l-88.148,39.505l-88.286-39.505v-16.735l88.286,36.425l88.149-36.967
		L307.829,118.301z"/>
	<path d="M197.926,249.038l-87.957-31.982c-1.833-0.666-3.667-1-5.496-1c-0.088,0-0.176,0.004-0.264,0.007
		c-0.086-0.003-0.174-0.007-0.261-0.007c-1.831,0-3.665,0.334-5.498,1l-87.957,31.982c-3.165,1.168-5.705,3.125-7.621,5.873
		C0.958,257.659,0,260.7,0,264.031v105.662c0,2.916,0.75,5.621,2.249,8.119c1.5,2.5,3.54,4.457,6.123,5.872l87.956,34.39
		c2.333,1.331,4.871,1.998,7.622,1.998c0.088,0,0.174-0.006,0.261-0.006s0.174,0.006,0.264,0.006c2.746,0,5.288-0.667,7.62-1.998
		l87.957-44.098c2.58-1.414,4.623-3.373,6.12-5.873c1.5-2.498,2.25-5.203,2.25-8.119v-95.953c-0.002-3.33-0.96-6.372-2.875-9.12
		C203.63,252.163,201.09,250.206,197.926,249.038z M192.428,355.885l-88.15,39.341l-88.286-38.37v-15.029l88.286,36.515
		l88.15-37.484V355.885z M192.428,308.27l-88.149,39.507L15.992,308.27v-16.733l88.286,36.424l88.15-36.966V308.27z"/>
</g>
</svg>
