<?xml version="1.0" encoding="utf-8"?>
<!-- Generator: Adobe Illustrator 16.0.4, SVG Export Plug-In . SVG Version: 6.00 Build 0)  -->
<!DOCTYPE svg PUBLIC "-//W3C//DTD SVG 1.1//EN" "http://www.w3.org/Graphics/SVG/1.1/DTD/svg11.dtd">
<svg version="1.1" id="Layer_1" xmlns="http://www.w3.org/2000/svg" xmlns:xlink="http://www.w3.org/1999/xlink" x="0px" y="0px"
	 width="448px" height="448px" viewBox="0 0 448 448" enable-background="new 0 0 448 448" xml:space="preserve">
<g id="Grid">
	<g id="icomoon-ignore">
		<line opacity="0.3" fill="none" stroke="#449FDB" enable-background="new    " x1="16" y1="0" x2="16" y2="448"/>
		<line fill="none" stroke="#449FDB" x1="32" y1="0" x2="32" y2="448"/>
		<line opacity="0.3" fill="none" stroke="#449FDB" enable-background="new    " x1="48" y1="0" x2="48" y2="448"/>
		<line fill="none" stroke="#449FDB" x1="64" y1="0" x2="64" y2="448"/>
		<line opacity="0.3" fill="none" stroke="#449FDB" enable-background="new    " x1="80" y1="0" x2="80" y2="448"/>
		<line fill="none" stroke="#449FDB" x1="96" y1="0" x2="96" y2="448"/>
		<line opacity="0.3" fill="none" stroke="#449FDB" enable-background="new    " x1="112" y1="0" x2="112" y2="448"/>
		<line fill="none" stroke="#449FDB" x1="128" y1="0" x2="128" y2="448"/>
		<line opacity="0.3" fill="none" stroke="#449FDB" enable-background="new    " x1="144" y1="0" x2="144" y2="448"/>
		<line fill="none" stroke="#449FDB" x1="160" y1="0" x2="160" y2="448"/>
		<line opacity="0.3" fill="none" stroke="#449FDB" enable-background="new    " x1="176" y1="0" x2="176" y2="448"/>
		<line fill="none" stroke="#449FDB" x1="192" y1="0" x2="192" y2="448"/>
		<line opacity="0.3" fill="none" stroke="#449FDB" enable-background="new    " x1="208" y1="0" x2="208" y2="448"/>
		<line fill="none" stroke="#449FDB" x1="224" y1="0" x2="224" y2="448"/>
		<line opacity="0.3" fill="none" stroke="#449FDB" enable-background="new    " x1="240" y1="0" x2="240" y2="448"/>
		<line fill="none" stroke="#449FDB" x1="256" y1="0" x2="256" y2="448"/>
		<line opacity="0.3" fill="none" stroke="#449FDB" enable-background="new    " x1="272" y1="0" x2="272" y2="448"/>
		<line fill="none" stroke="#449FDB" x1="288" y1="0" x2="288" y2="448"/>
		<line opacity="0.3" fill="none" stroke="#449FDB" enable-background="new    " x1="304" y1="0" x2="304" y2="448"/>
		<line fill="none" stroke="#449FDB" x1="320" y1="0" x2="320" y2="448"/>
		<line opacity="0.3" fill="none" stroke="#449FDB" enable-background="new    " x1="336" y1="0" x2="336" y2="448"/>
		<line fill="none" stroke="#449FDB" x1="352" y1="0" x2="352" y2="448"/>
		<line opacity="0.3" fill="none" stroke="#449FDB" enable-background="new    " x1="368" y1="0" x2="368" y2="448"/>
		<line fill="none" stroke="#449FDB" x1="384" y1="0" x2="384" y2="448"/>
		<line opacity="0.3" fill="none" stroke="#449FDB" enable-background="new    " x1="400" y1="0" x2="400" y2="448"/>
		<line fill="none" stroke="#449FDB" x1="416" y1="0" x2="416" y2="448"/>
		<line opacity="0.3" fill="none" stroke="#449FDB" enable-background="new    " x1="432" y1="0" x2="432" y2="448"/>
		<line opacity="0.3" fill="none" stroke="#449FDB" enable-background="new    " x1="0" y1="16" x2="448" y2="16"/>
		<line fill="none" stroke="#449FDB" x1="0" y1="32" x2="448" y2="32"/>
		<line opacity="0.3" fill="none" stroke="#449FDB" enable-background="new    " x1="0" y1="48" x2="448" y2="48"/>
		<line fill="none" stroke="#449FDB" x1="0" y1="64" x2="448" y2="64"/>
		<line opacity="0.3" fill="none" stroke="#449FDB" enable-background="new    " x1="0" y1="80" x2="448" y2="80"/>
		<line fill="none" stroke="#449FDB" x1="0" y1="96" x2="448" y2="96"/>
		<line opacity="0.3" fill="none" stroke="#449FDB" enable-background="new    " x1="0" y1="112" x2="448" y2="112"/>
		<line fill="none" stroke="#449FDB" x1="0" y1="128" x2="448" y2="128"/>
		<line opacity="0.3" fill="none" stroke="#449FDB" enable-background="new    " x1="0" y1="144" x2="448" y2="144"/>
		<line fill="none" stroke="#449FDB" x1="0" y1="160" x2="448" y2="160"/>
		<line opacity="0.3" fill="none" stroke="#449FDB" enable-background="new    " x1="0" y1="176" x2="448" y2="176"/>
		<line fill="none" stroke="#449FDB" x1="0" y1="192" x2="448" y2="192"/>
		<line opacity="0.3" fill="none" stroke="#449FDB" enable-background="new    " x1="0" y1="208" x2="448" y2="208"/>
		<line fill="none" stroke="#449FDB" x1="0" y1="224" x2="448" y2="224"/>
		<line opacity="0.3" fill="none" stroke="#449FDB" enable-background="new    " x1="0" y1="240" x2="448" y2="240"/>
		<line fill="none" stroke="#449FDB" x1="0" y1="256" x2="448" y2="256"/>
		<line opacity="0.3" fill="none" stroke="#449FDB" enable-background="new    " x1="0" y1="272" x2="448" y2="272"/>
		<line fill="none" stroke="#449FDB" x1="0" y1="288" x2="448" y2="288"/>
		<line opacity="0.3" fill="none" stroke="#449FDB" enable-background="new    " x1="0" y1="304" x2="448" y2="304"/>
		<line fill="none" stroke="#449FDB" x1="0" y1="320" x2="448" y2="320"/>
		<line opacity="0.3" fill="none" stroke="#449FDB" enable-background="new    " x1="0" y1="336" x2="448" y2="336"/>
		<line fill="none" stroke="#449FDB" x1="0" y1="352" x2="448" y2="352"/>
		<line opacity="0.3" fill="none" stroke="#449FDB" enable-background="new    " x1="0" y1="368" x2="448" y2="368"/>
		<line fill="none" stroke="#449FDB" x1="0" y1="384" x2="448" y2="384"/>
		<line opacity="0.3" fill="none" stroke="#449FDB" enable-background="new    " x1="0" y1="400" x2="448" y2="400"/>
		<line fill="none" stroke="#449FDB" x1="0" y1="416" x2="448" y2="416"/>
		<line opacity="0.3" fill="none" stroke="#449FDB" enable-background="new    " x1="0" y1="432" x2="448" y2="432"/>
	</g>
</g>
<g>
	<path d="M0.69,341.729v-69.102c0-4.209,1.196-8.085,3.591-11.629c2.394-3.545,5.539-6.202,9.439-7.974l72.504-30.899v-66.444
		c0-4.208,1.195-8.084,3.591-11.628c2.394-3.545,5.54-6.202,9.44-7.975l74.842-31.894c2.561-1.104,5.346-1.661,8.353-1.661
		c3.006,0,5.79,0.556,8.353,1.661l74.844,31.894c3.898,1.772,7.042,4.43,9.438,7.975c2.396,3.544,3.593,7.42,3.593,11.628v66.444
		l72.504,30.899c4.01,1.772,7.183,4.429,9.523,7.974c2.337,3.544,3.507,7.42,3.507,11.629v69.102c0,3.987-1.058,7.7-3.174,11.134
		c-2.118,3.432-5.012,6.033-8.688,7.806l-74.843,37.208c-2.785,1.55-5.959,2.325-9.522,2.325c-3.566,0-6.739-0.775-9.521-2.325
		l-74.844-37.208c-0.56-0.224-0.95-0.443-1.17-0.664c-0.225,0.221-0.614,0.44-1.17,0.664l-74.843,37.208
		c-2.786,1.55-5.96,2.325-9.522,2.325c-3.566,0-6.739-0.775-9.523-2.325L12.55,360.669c-3.675-1.772-6.573-4.374-8.687-7.806
		C1.747,349.43,0.69,345.719,0.69,341.729z M29.424,269.472l67.492,28.737l67.492-28.737l-67.492-28.739L29.424,269.472z
		 M107.608,373.626l64.15-31.896v-52.159l-64.15,27.242V373.626z M108.777,155.183l73.673,31.396l73.674-31.396l-73.674-31.396
		L108.777,155.183z M193.143,249.538l64.151-27.411v-44.185l-64.151,27.243V249.538z M200.494,269.472l67.491,28.737l67.49-28.737
		l-67.49-28.739L200.494,269.472z M278.677,373.626l64.15-31.896v-52.159l-64.15,27.242V373.626z"/>
</g>
<path d="M444.159,214.94c-2.269-3.44-5.352-6.02-9.242-7.742L364.523,177.2v-64.51c0-4.086-1.163-7.849-3.485-11.289
	c-2.329-3.442-5.382-6.021-9.168-7.743l-72.663-30.964c-2.486-1.072-5.188-1.613-8.108-1.613s-5.623,0.542-8.109,1.613
	l-45.59,19.681c2.506-1.081,5.228-1.624,8.167-1.624c2.94,0,5.663,0.545,8.167,1.624l77.189,33.048
	c3.808,1.733,6.886,4.332,9.229,7.797c2.34,3.464,3.512,7.255,3.512,11.37v9.289h0.002v43.2l-0.002,0.002v12.473l70.888,30.209
	c3.922,1.733,7.024,4.33,9.311,7.797c2.284,3.464,3.429,7.253,3.429,11.37v4.091v50.997v12.474c0,3.896-1.035,7.528-3.103,10.882
	c-0.449,0.728-0.938,1.405-1.455,2.057l33.317-17.721c3.57-1.721,6.38-4.247,8.437-7.58c2.051-3.331,3.081-6.937,3.081-10.808
	V226.23C447.567,222.146,446.43,218.383,444.159,214.94z"/>
</svg>
