<?xml version="1.0" encoding="utf-8"?>
<!-- Generator: Adobe Illustrator 16.0.4, SVG Export Plug-In . SVG Version: 6.00 Build 0)  -->
<!DOCTYPE svg PUBLIC "-//W3C//DTD SVG 1.1//EN" "http://www.w3.org/Graphics/SVG/1.1/DTD/svg11.dtd">
<svg version="1.1" id="Layer_1" xmlns="http://www.w3.org/2000/svg" xmlns:xlink="http://www.w3.org/1999/xlink" x="0px" y="0px"
	 width="448px" height="448px" viewBox="0 0 448 448" enable-background="new 0 0 448 448" xml:space="preserve">
<g id="Layer_3" display="none">
	<g id="Grid" display="inline">
		<g id="icomoon-ignore">
			<line opacity="0.3" fill="none" stroke="#449FDB" enable-background="new    " x1="16" y1="0" x2="16" y2="448"/>
			<line fill="none" stroke="#449FDB" x1="32" y1="0" x2="32" y2="448"/>
			<line opacity="0.3" fill="none" stroke="#449FDB" enable-background="new    " x1="48" y1="0" x2="48" y2="448"/>
			<line fill="none" stroke="#449FDB" x1="64" y1="0" x2="64" y2="448"/>
			<line opacity="0.3" fill="none" stroke="#449FDB" enable-background="new    " x1="80" y1="0" x2="80" y2="448"/>
			<line fill="none" stroke="#449FDB" x1="96" y1="0" x2="96" y2="448"/>
			<line opacity="0.3" fill="none" stroke="#449FDB" enable-background="new    " x1="112" y1="0" x2="112" y2="448"/>
			<line fill="none" stroke="#449FDB" x1="128" y1="0" x2="128" y2="448"/>
			<line opacity="0.3" fill="none" stroke="#449FDB" enable-background="new    " x1="144" y1="0" x2="144" y2="448"/>
			<line fill="none" stroke="#449FDB" x1="160" y1="0" x2="160" y2="448"/>
			<line opacity="0.3" fill="none" stroke="#449FDB" enable-background="new    " x1="176" y1="0" x2="176" y2="448"/>
			<line fill="none" stroke="#449FDB" x1="192" y1="0" x2="192" y2="448"/>
			<line opacity="0.3" fill="none" stroke="#449FDB" enable-background="new    " x1="208" y1="0" x2="208" y2="448"/>
			<line fill="none" stroke="#449FDB" x1="224" y1="0" x2="224" y2="448"/>
			<line opacity="0.3" fill="none" stroke="#449FDB" enable-background="new    " x1="240" y1="0" x2="240" y2="448"/>
			<line fill="none" stroke="#449FDB" x1="256" y1="0" x2="256" y2="448"/>
			<line opacity="0.3" fill="none" stroke="#449FDB" enable-background="new    " x1="272" y1="0" x2="272" y2="448"/>
			<line fill="none" stroke="#449FDB" x1="288" y1="0" x2="288" y2="448"/>
			<line opacity="0.3" fill="none" stroke="#449FDB" enable-background="new    " x1="304" y1="0" x2="304" y2="448"/>
			<line fill="none" stroke="#449FDB" x1="320" y1="0" x2="320" y2="448"/>
			<line opacity="0.3" fill="none" stroke="#449FDB" enable-background="new    " x1="336" y1="0" x2="336" y2="448"/>
			<line fill="none" stroke="#449FDB" x1="352" y1="0" x2="352" y2="448"/>
			<line opacity="0.3" fill="none" stroke="#449FDB" enable-background="new    " x1="368" y1="0" x2="368" y2="448"/>
			<line fill="none" stroke="#449FDB" x1="384" y1="0" x2="384" y2="448"/>
			<line opacity="0.3" fill="none" stroke="#449FDB" enable-background="new    " x1="400" y1="0" x2="400" y2="448"/>
			<line fill="none" stroke="#449FDB" x1="416" y1="0" x2="416" y2="448"/>
			<line opacity="0.3" fill="none" stroke="#449FDB" enable-background="new    " x1="432" y1="0" x2="432" y2="448"/>
			<line opacity="0.3" fill="none" stroke="#449FDB" enable-background="new    " x1="0" y1="16" x2="448" y2="16"/>
			<line fill="none" stroke="#449FDB" x1="0" y1="32" x2="448" y2="32"/>
			<line opacity="0.3" fill="none" stroke="#449FDB" enable-background="new    " x1="0" y1="48" x2="448" y2="48"/>
			<line fill="none" stroke="#449FDB" x1="0" y1="64" x2="448" y2="64"/>
			<line opacity="0.3" fill="none" stroke="#449FDB" enable-background="new    " x1="0" y1="80" x2="448" y2="80"/>
			<line fill="none" stroke="#449FDB" x1="0" y1="96" x2="448" y2="96"/>
			<line opacity="0.3" fill="none" stroke="#449FDB" enable-background="new    " x1="0" y1="112" x2="448" y2="112"/>
			<line fill="none" stroke="#449FDB" x1="0" y1="128" x2="448" y2="128"/>
			<line opacity="0.3" fill="none" stroke="#449FDB" enable-background="new    " x1="0" y1="144" x2="448" y2="144"/>
			<line fill="none" stroke="#449FDB" x1="0" y1="160" x2="448" y2="160"/>
			<line opacity="0.3" fill="none" stroke="#449FDB" enable-background="new    " x1="0" y1="176" x2="448" y2="176"/>
			<line fill="none" stroke="#449FDB" x1="0" y1="192" x2="448" y2="192"/>
			<line opacity="0.3" fill="none" stroke="#449FDB" enable-background="new    " x1="0" y1="208" x2="448" y2="208"/>
			<line fill="none" stroke="#449FDB" x1="0" y1="224" x2="448" y2="224"/>
			<line opacity="0.3" fill="none" stroke="#449FDB" enable-background="new    " x1="0" y1="240" x2="448" y2="240"/>
			<line fill="none" stroke="#449FDB" x1="0" y1="256" x2="448" y2="256"/>
			<line opacity="0.3" fill="none" stroke="#449FDB" enable-background="new    " x1="0" y1="272" x2="448" y2="272"/>
			<line fill="none" stroke="#449FDB" x1="0" y1="288" x2="448" y2="288"/>
			<line opacity="0.3" fill="none" stroke="#449FDB" enable-background="new    " x1="0" y1="304" x2="448" y2="304"/>
			<line fill="none" stroke="#449FDB" x1="0" y1="320" x2="448" y2="320"/>
			<line opacity="0.3" fill="none" stroke="#449FDB" enable-background="new    " x1="0" y1="336" x2="448" y2="336"/>
			<line fill="none" stroke="#449FDB" x1="0" y1="352" x2="448" y2="352"/>
			<line opacity="0.3" fill="none" stroke="#449FDB" enable-background="new    " x1="0" y1="368" x2="448" y2="368"/>
			<line fill="none" stroke="#449FDB" x1="0" y1="384" x2="448" y2="384"/>
			<line opacity="0.3" fill="none" stroke="#449FDB" enable-background="new    " x1="0" y1="400" x2="448" y2="400"/>
			<line fill="none" stroke="#449FDB" x1="0" y1="416" x2="448" y2="416"/>
			<line opacity="0.3" fill="none" stroke="#449FDB" enable-background="new    " x1="0" y1="432" x2="448" y2="432"/>
		</g>
	</g>
</g>
<g display="none">
	<g display="inline">
		<g>
			<line fill="none" x1="226.463" y1="57.797" x2="226.463" y2="364.758"/>
			<rect x="216.463" y="57.797" width="20" height="306.96"/>
		</g>
		<path display="none" fill="#050505" d="M224.963,381.398c-68.975,0-128.375-41.779-154.218-101.363c-1.905-4.393,0,0,0,0
			l7.422-39.869c0,0-14.015-0.299-19.151-0.486c-0.349-0.014-2.054-17.346-2.054-26.286c0-92.633,75.364-168,168.001-168
			c92.636,0,168,75.366,168,168C392.965,306.037,317.598,381.398,224.963,381.398z M224.963,64.089
			c-82.327,0-149.306,66.981-149.306,149.31c0,8.945,2.084,17.578,2.306,26.224C78.042,242.709,70.5,279.334,71,280.5
			c0,0,15.167-0.5,20.415-0.369c1.039,0.025-0.492-0.982,0,0c24.542,48.922,75.189,82.576,133.548,82.576
			c82.326,0,149.308-66.979,149.308-149.308C374.27,131.069,307.289,64.089,224.963,64.089z"/>
		<path fill="#050505" d="M357.264,135.13C333.5,85.5,287.395,64.089,224.963,64.089c-82.327,0-149.306,66.981-149.306,149.31
			c0,9.187,0.834,18.183,2.431,26.916l-18.997-0.155c-1.4-8.72-2.129-17.658-2.129-26.764c0-92.633,75.364-168,168.001-168
			C297.76,45.394,355,74,377.166,134.832 M393.248,199.824c0.474,5.127-0.285,8.322-0.285,13.57
			c0.002,92.643-75.364,168.004-168,168.004c-68.944,0-129.322-42.742-155.185-102.287l20.769-0.717
			c24.595,48.776,76.163,84.312,134.417,84.312c82.326,0,149.308-66.979,149.308-149.308c0-3.721,0.863-9.416,0.596-13.069"/>
	</g>
	<polyline display="inline" points="76.167,219.771 70.054,219.771 70.054,199.771 114.012,199.771 114.012,219.771 79.127,219.771 
			"/>
	<polyline display="inline" fill="#050505" points="123.499,199.499 110.833,200.164 120.166,208.5 	"/>
	<polyline display="inline" fill="#050505" points="171.561,219.772 138.144,219.772 138.144,199.772 378.436,199.772 
		378.436,219.772 187.74,219.772 	"/>
	<path display="inline" fill="#050505" d="M160.207,281.566c26.088,47.399,70.415,75.131,70.415,75.131l-10,16.668
		c0,0-47.251-25.988-76.876-77.178L160.207,281.566z"/>
	<path display="inline" fill="#050505" d="M120.388,208.342c1.679-91.814,98.565-158.312,98.565-158.312l12.333,15.667
		c0,0-89.946,63.307-89.667,147.333c0.014,3.917,0.201,7.768,0.547,11.553"/>
	<path display="inline" fill="#050505" d="M314.145,139.591C288.981,74.465,237.7,50.03,237.7,50.03l-12.334,15.667
		c0,0,44.432,21.609,68.805,77.323"/>
	<path display="inline" fill="#050505" d="M315.273,201.215c0.512,4.536-0.226,7.145-0.24,11.816
		c-0.295,88.17-89,143.667-89,143.667l10,16.668c0,0,99.279-54.605,100.248-161.417c0.043-4.602-0.158-7.146-0.576-11.619"/>
	<path display="inline" fill="#050505" d="M225.916,159.812c75.5-1,129.918-38.582,129.918-38.582l-10.666-16.334
		c0,0-61.748,33.648-118.334,34.667c-69.417,1.249-117.667-35-117.667-35l-11.667,17
		C97.501,121.563,147.423,160.852,225.916,159.812z"/>
	<path display="inline" fill="#050505" d="M117.321,311.084c-4.663,2.877-7.153,4.748-7.153,4.748l-11.667-17
		c0,0,6.392-5.029,18.195-11.441"/>
	<path display="inline" fill="#050505" d="M176.167,265.588c15.119-3.229,32.13-5.252,50.749-5.004
		c75.5,1,129.918,38.582,129.918,38.582L346.168,315.5c0,0-61.748-33.648-118.334-34.668c-37.198-0.668-61.318,5.43-82.192,14.947"
		/>
</g>
<g display="none">
	<g display="inline">
		<g>
			<line fill="none" x1="224.078" y1="83.989" x2="224.078" y2="359.465"/>
			<rect x="215.103" y="83.989" width="17.948" height="275.476"/>
		</g>
		<path display="none" fill="#050505" d="M222.731,374.398c-61.9,0-115.207-37.494-138.4-90.967c-1.71-3.941,0,0,0,0l6.661-35.779
			c0,0-12.578-0.27-17.188-0.438c-0.313-0.011-1.843-15.565-1.843-23.589c0-83.132,67.635-150.769,150.77-150.769
			c83.133,0,150.769,67.635,150.769,150.769C373.501,306.767,305.864,374.398,222.731,374.398z M222.731,89.635
			c-73.883,0-133.992,60.111-133.992,133.996c0,8.027,1.87,15.774,2.069,23.533c0.07,2.77-6.697,35.639-6.249,36.686
			c0,0,13.61-0.449,18.32-0.332c0.934,0.023-0.44-0.882,0,0c22.025,43.904,67.478,74.106,119.851,74.106
			c73.882,0,133.993-60.108,133.993-133.993C356.724,149.745,296.613,89.635,222.731,89.635z"/>
		<path fill="#050505" d="M333,144.75c-14.833-37.25-54.24-55.115-110.269-55.115c-73.883,0-133.992,60.111-133.992,133.996
			c0,8.244,0.262-2.319,0.181,5.154l-17.048,0.859c0.39-7.447,0.089,2.153,0.089-6.02c0-83.132,67.635-150.769,150.77-150.769
			c65.331,0,106.769,22.643,127.592,62.265 M373.755,211.448c0.426,4.601-0.255,7.468-0.255,12.178
			c0.001,83.141-67.637,151.104-150.769,150.772c-57.897-0.231-86.897-17.231-108.269-38.797l12.639-11.644
			c15.731,16.541,49.064,34.875,95.629,33.665c73.856-1.919,133.993-60.107,133.993-133.993c0-3.34,0.773-8.451,0.535-11.729"/>
	</g>
	<polyline display="inline" points="89.197,229.35 73.711,229.35 73.711,211.4 154.161,211.4 154.161,229.35 91.854,229.35 	"/>
	<polyline display="inline" fill="#050505" points="131.674,211.156 120.307,211.753 128.683,219.233 	"/>
	<polyline display="inline" fill="#050505" points="174.807,229.352 144.817,229.352 144.817,211.401 360.463,211.401 
		360.463,229.352 189.327,229.352 	"/>
	<path display="inline" fill="#050505" d="M164.617,284.807c23.412,42.538,63.191,67.425,63.191,67.425l-8.975,14.959
		c0,0-44.404-23.323-70.99-69.263L164.617,284.807z"/>
	<path display="inline" fill="#050505" d="M128.882,219.093c1.508-82.397,88.456-142.074,88.456-142.074l11.068,14.061
		c0,0-80.721,56.813-80.469,132.221c0.011,3.516-0.086,2.412,0.225,5.809"/>
	<path display="inline" fill="#050505" d="M302.766,157.393c-22.583-58.446-68.604-80.375-68.604-80.375l-11.068,14.061
		c0,0,39.875,19.392,61.748,69.392"/>
	<path display="inline" fill="#050505" d="M303.778,212.696c0.46,4.07-0.201,6.411-0.215,10.604
		c-0.266,79.128-79.872,128.932-79.872,128.932l8.974,14.959c0,0,89.098-49.006,89.966-144.86c0.038-4.13-0.142-6.412-0.518-10.427"
		/>
	<path display="inline" fill="#050505" d="M223.586,175.54c67.757-0.897,116.594-34.625,116.594-34.625l-9.572-14.658
		c0,0-55.415,30.197-106.197,31.111c-62.298,1.121-105.598-31.41-105.598-31.41l-10.47,15.256
		C108.344,141.214,153.145,176.474,223.586,175.54z"/>
	<path display="inline" fill="#050505" d="M126.13,311.296c-4.185,2.582-6.42,4.262-6.42,4.262l-10.47-15.257
		c0,0,5.736-4.514,16.329-10.269"/>
	<path display="inline" fill="#050505" d="M139.875,283.875c14.292-12.375,67.9-18.122,84.609-17.898
		c67.756,0.896,116.592,34.625,116.592,34.625l-9.572,14.657c0,0-55.413-30.196-106.195-31.112
		c-33.384-0.6-58.029,5.875-76.763,14.416"/>
</g>
<g id="_x31__1_" display="none">
	<g display="inline">
		<g>
			<line fill="none" x1="224.779" y1="60.869" x2="224.779" y2="382.861"/>
			<rect x="214.289" y="60.869" width="20.979" height="321.993"/>
		</g>
		<path display="none" fill="#050505" d="M223.205,400.317c-72.353,0-134.661-43.826-161.77-106.328c-1.999-4.606,0,0,0,0
			l7.785-41.82c0,0-14.702-0.313-20.091-0.512c-0.365-0.013-2.152-18.195-2.152-27.572c0-97.169,79.055-176.228,176.228-176.228
			c97.171,0,176.229,79.056,176.229,176.228C399.435,321.265,320.376,400.317,223.205,400.317z M223.205,67.468
			c-86.358,0-156.618,70.262-156.618,156.622c0,9.385,2.187,18.438,2.418,27.508c0.083,3.237-7.826,41.657-7.303,42.881
			c0,0,15.909-0.524,21.415-0.389c1.09,0.028-0.516-1.031,0,0c25.745,51.318,78.871,86.62,140.087,86.62
			c86.358,0,156.619-70.258,156.619-156.62C379.824,137.729,309.563,67.468,223.205,67.468z"/>
		<path fill="#050505" d="M329.094,97.89C295.167,75.167,287.5,67,223.205,67.468C136.848,68.097,66.587,137.73,66.587,224.09
			c0,9.639,0.308-2.71,0.212,6.025l-19.927,1.006c0.455-8.706,0.104,2.518,0.104-7.036c0-97.169,79.056-175.688,176.228-176.228
			c64.295-0.357,83.962,7.309,126.14,38.779 M399.73,209.851c0.497,5.378-0.297,8.729-0.297,14.234
			c0.001,97.18-79.06,176.62-176.229,176.232C155.531,400.047,129,386.5,105.656,364.97l14.772-13.608
			c20.071,17.64,48.351,30.765,102.776,29.35c86.328-2.242,156.619-70.258,156.619-156.62c0-3.902,0.904-9.877,0.626-13.708"/>
	</g>
	<polyline display="inline" points="67.123,230.775 49.021,230.775 49.021,209.795 143.056,209.795 143.056,230.775 70.228,230.775 
			"/>
	<polyline display="inline" fill="#050505" points="116.772,209.51 103.486,210.207 113.276,218.95 	"/>
	<polyline display="inline" fill="#050505" points="167.188,230.775 132.135,230.775 132.135,209.796 384.194,209.796 
		384.194,230.775 184.16,230.775 	"/>
	<path display="inline" fill="#050505" d="M155.278,295.598c27.366,49.722,73.862,78.81,73.862,78.81l-10.49,17.484
		c0,0-51.903-27.263-82.979-80.958L155.278,295.598z"/>
	<path display="inline" fill="#050505" d="M113.51,218.787c1.761-96.312,103.394-166.066,103.394-166.066l12.937,16.436
		c0,0-94.351,66.407-94.057,154.547c0.014,4.109-0.1,2.82,0.264,6.79"/>
	<path display="inline" fill="#050505" d="M308.755,130.668C281.5,71.5,236.565,52.721,236.565,52.721l-12.938,16.436
		c0,0,50.872,22.344,72.175,81.109"/>
	<path display="inline" fill="#050505" d="M317.938,211.31c0.537,4.758-0.235,7.493-0.251,12.394
		c-0.311,92.49-93.359,150.703-93.359,150.703l10.49,17.484c0,0,104.141-57.279,105.156-169.322
		c0.046-4.827-0.164-7.495-0.604-12.188"/>
	<path display="inline" fill="#050505" d="M224.205,167.879c79.198-1.048,86.281-16.472,86.281-16.472l-2.188-23.133
		c0,0-23.771,17.296-83.13,18.364c-72.816,1.311-123.429-36.714-123.429-36.714l-12.238,17.832
		C89.501,127.756,141.868,168.97,224.205,167.879z"/>
	<path display="inline" fill="#050505" d="M110.292,326.56c-4.892,3.019-7.504,4.981-7.504,4.981l-12.237-17.833
		c0,0,6.703-5.276,19.086-12.003"/>
	<path display="inline" fill="#050505" d="M139.358,289.508c16.705-14.465,66.366-16.183,85.896-15.922
		c79.197,1.05,136.279,40.472,136.279,40.472l-11.188,17.134c0,0-64.771-35.295-124.129-36.365
		c-39.021-0.701-67.828,6.865-89.726,16.849"/>
</g>
<g>
	<path d="M384.194,210.279v-0.483H235.268v-42.238c33.708-1.346,31.218-5.151,31.218-5.151l14.195-24.465
		c0.04,0.109,0.08,0.214,0.12,0.323l14.953-23.597c-9.621-20.216-20.138-33.929-29.604-43.197
		c16.287,4.681,26.294,12.663,44.943,20.419l11.25-18.254C289,56,269.833,47.833,223.204,47.857
		c-97.173,0.05-176.228,79.059-176.228,176.228c0,2.928,0.033,3.9,0.065,4.097c-0.036,0.522-0.091,1.425-0.17,2.939l6.849-0.346
		h13.402h3.105h61.907h10.921h24.132h16.972h30.129v42.928c-8.708,1.479-18.78,4.418-23.931,8.805l-15.866,27.167
		c15.495-7.879,26.797-12.169,39.797-13.925v71.982c-13.067-7.208-32.387-21.168-48.011-46.136l-11.606,19.337
		c14.578,19.342,29.438,31.711,41.165,39.414c-23.869-2.059-37.421-9.217-54.409-20.987l-9.772,16.608
		c21.844,18.531,46.177,25.198,91.549,24.349c97.154-1.819,176.23-79.053,176.229-176.232c0-5.505,0.794-8.856,0.297-14.234
		L384.194,210.279z M235.268,74.986c12.153,7.814,31.298,25.165,44.881,61.521c-5.686,3.875-18.04,8.435-44.881,9.791V74.986z
		 M113.965,209.795H67.248c2.635-28.81,13.161-55.096,29.4-77.029c6.912,4.499,18.674,11.373,34.552,17.854
		C122.248,168.603,115.73,188.487,113.965,209.795z M111.015,115.982c22.083-22.404,50.961-38.363,83.304-45.072
		c-15.32,13.641-35.695,34.392-52.161,60.34C128.562,125.87,117.948,120.146,111.015,115.982z M214.289,209.796h-71.232v-0.001
		h-6.526c2.001-18.503,7.934-35.881,15.917-51.686c17.567,5.254,38.37,9.221,61.842,9.748V209.796z M214.289,146.54
		c-18.675-0.655-35.691-3.792-50.52-7.981c16.526-25.278,36.816-45.073,50.52-56.945V146.54z M235.268,230.775h82.199
		c-1.151,21.031-7.024,40.186-15.315,57.167c-20.803-7.33-44.546-13.691-66.884-15.077V230.775z M235.268,294.961
		c18.473,0.935,38.369,5.788,56.341,11.66c-18.582,28.905-42.602,49.592-56.341,60.038V294.961z M258.527,375.561
		c16.291-12.85,37.934-33.248,54.819-61.077c11.213,4.429,20.708,8.736,27.272,11.87
		C319.359,350.024,290.837,367.356,258.527,375.561z M353.529,309.883c-6.754-3.403-17.371-8.504-30.293-13.854
		c8.86-18.974,15.116-40.739,16.459-65.254h39.977C378.423,260.223,368.967,287.185,353.529,309.883z"/>
	<path d="M323.458,146.478h57.23V191.5L449,129.461L380.688,66.46v44.529h-57.23C312.563,110.989,312.563,146.478,323.458,146.478z"
		/>
	<path d="M63.336,304.811H8.149c-10.865,0-10.865,37.603,0,37.603h55.187v46.864l67.028-65.59l-67.028-66.604V304.811z"/>
</g>
<g id="Layer_4" display="none">
	<line display="inline" fill="none" stroke="#EF1630" stroke-miterlimit="10" x1="103.5" y1="421" x2="362" y2="10.5"/>
</g>
</svg>
